<svg width="778" height="447" viewBox="0 0 778 447" fill="none" xmlns="http://www.w3.org/2000/svg">
<g id="Frame 2" filter="url(#filter0_d_7_3)">
<g clip-path="url(#clip0_7_3)">
<rect width="778" height="447" rx="20" fill="white"/>
<path id="Learn how to use Express.js in a Serverless environment" d="M55.8352 109V74.0909H61.1023V104.466H76.9205V109H55.8352ZM91.884 109.528C89.3044 109.528 87.0828 108.977 85.2192 107.875C83.3669 106.761 81.9351 105.199 80.9237 103.188C79.9237 101.165 79.4237 98.7955 79.4237 96.0795C79.4237 93.3977 79.9237 91.0341 80.9237 88.9886C81.9351 86.9432 83.3442 85.3466 85.151 84.1989C86.9692 83.0511 89.0942 82.4773 91.526 82.4773C93.0033 82.4773 94.4351 82.7216 95.8215 83.2102C97.2078 83.6989 98.4522 84.4659 99.5544 85.5114C100.657 86.5568 101.526 87.9148 102.162 89.5852C102.799 91.2443 103.117 93.2614 103.117 95.6364V97.4432H82.3044V93.625H98.1226C98.1226 92.2841 97.8499 91.0966 97.3044 90.0625C96.759 89.017 95.9919 88.1932 95.0033 87.5909C94.026 86.9886 92.8783 86.6875 91.5601 86.6875C90.1283 86.6875 88.8783 87.0398 87.8101 87.7443C86.7533 88.4375 85.9351 89.3466 85.3556 90.4716C84.7874 91.5852 84.5033 92.7955 84.5033 94.1023V97.0852C84.5033 98.8352 84.8101 100.324 85.4237 101.551C86.0487 102.778 86.9181 103.716 88.0317 104.364C89.1453 105 90.4465 105.318 91.9351 105.318C92.901 105.318 93.7817 105.182 94.5772 104.909C95.3726 104.625 96.0601 104.205 96.6397 103.648C97.2192 103.091 97.6624 102.403 97.9692 101.585L102.793 102.455C102.407 103.875 101.714 105.119 100.714 106.188C99.7249 107.244 98.4806 108.068 96.9806 108.659C95.4919 109.239 93.7931 109.528 91.884 109.528ZM114.471 109.58C112.812 109.58 111.312 109.273 109.971 108.659C108.63 108.034 107.568 107.131 106.784 105.949C106.011 104.767 105.624 103.318 105.624 101.602C105.624 100.125 105.909 98.9091 106.477 97.9545C107.045 97 107.812 96.2443 108.778 95.6875C109.744 95.1307 110.823 94.7102 112.017 94.4261C113.21 94.142 114.426 93.9261 115.664 93.7784C117.232 93.5966 118.505 93.4489 119.482 93.3352C120.46 93.2102 121.17 93.0114 121.613 92.7386C122.056 92.4659 122.278 92.0227 122.278 91.4091V91.2898C122.278 89.8011 121.857 88.6477 121.017 87.8295C120.187 87.0114 118.948 86.6023 117.301 86.6023C115.585 86.6023 114.232 86.983 113.244 87.7443C112.267 88.4943 111.59 89.3295 111.215 90.25L106.426 89.1591C106.994 87.5682 107.823 86.2841 108.914 85.3068C110.017 84.3182 111.284 83.6023 112.715 83.1591C114.147 82.7045 115.653 82.4773 117.232 82.4773C118.278 82.4773 119.386 82.6023 120.556 82.8523C121.738 83.0909 122.84 83.5341 123.863 84.1818C124.897 84.8295 125.744 85.7557 126.403 86.9602C127.062 88.1534 127.392 89.7045 127.392 91.6136V109H122.414V105.42H122.21C121.88 106.08 121.386 106.727 120.727 107.364C120.068 108 119.221 108.528 118.187 108.949C117.153 109.369 115.914 109.58 114.471 109.58ZM115.579 105.489C116.988 105.489 118.193 105.21 119.193 104.653C120.204 104.097 120.971 103.369 121.494 102.472C122.028 101.562 122.295 100.591 122.295 99.5568V96.1818C122.113 96.3636 121.761 96.5341 121.238 96.6932C120.727 96.8409 120.142 96.9716 119.482 97.0852C118.823 97.1875 118.181 97.2841 117.556 97.375C116.931 97.4545 116.409 97.5227 115.988 97.5795C114.999 97.7045 114.096 97.9148 113.278 98.2102C112.471 98.5057 111.823 98.9318 111.335 99.4886C110.857 100.034 110.619 100.761 110.619 101.67C110.619 102.932 111.085 103.886 112.017 104.534C112.948 105.17 114.136 105.489 115.579 105.489ZM132.26 109V82.8182H137.186V86.9773H137.459C137.936 85.5682 138.777 84.4602 139.981 83.6534C141.197 82.8352 142.572 82.4261 144.106 82.4261C144.425 82.4261 144.8 82.4375 145.231 82.4602C145.675 82.483 146.021 82.5114 146.271 82.5455V87.4205C146.067 87.3636 145.703 87.3011 145.18 87.233C144.658 87.1534 144.135 87.1136 143.612 87.1136C142.408 87.1136 141.334 87.3693 140.391 87.8807C139.459 88.3807 138.72 89.0795 138.175 89.9773C137.629 90.8636 137.356 91.875 137.356 93.0114V109H132.26ZM153.858 93.4545V109H148.762V82.8182H153.654V87.0795H153.978C154.58 85.6932 155.523 84.5795 156.807 83.7386C158.103 82.8977 159.733 82.4773 161.699 82.4773C163.483 82.4773 165.046 82.8523 166.387 83.6023C167.728 84.3409 168.767 85.4432 169.506 86.9091C170.245 88.375 170.614 90.1875 170.614 92.3466V109H165.517V92.9602C165.517 91.0625 165.023 89.5795 164.034 88.5114C163.046 87.4318 161.688 86.892 159.961 86.892C158.779 86.892 157.728 87.1477 156.807 87.6591C155.898 88.1705 155.177 88.9205 154.642 89.9091C154.12 90.8864 153.858 92.0682 153.858 93.4545ZM191.409 93.4545V109H186.312V74.0909H191.341V87.0795H191.665C192.278 85.6705 193.216 84.5511 194.477 83.7216C195.739 82.892 197.386 82.4773 199.42 82.4773C201.216 82.4773 202.784 82.8466 204.125 83.5852C205.477 84.3239 206.523 85.4261 207.261 86.892C208.011 88.3466 208.386 90.1648 208.386 92.3466V109H203.29V92.9602C203.29 91.0398 202.795 89.5511 201.807 88.4943C200.818 87.4261 199.443 86.892 197.682 86.892C196.477 86.892 195.398 87.1477 194.443 87.6591C193.5 88.1705 192.756 88.9205 192.21 89.9091C191.676 90.8864 191.409 92.0682 191.409 93.4545ZM224.296 109.528C221.841 109.528 219.699 108.966 217.87 107.841C216.04 106.716 214.62 105.142 213.608 103.119C212.597 101.097 212.091 98.733 212.091 96.0284C212.091 93.3125 212.597 90.9375 213.608 88.9034C214.62 86.8693 216.04 85.2898 217.87 84.1648C219.699 83.0398 221.841 82.4773 224.296 82.4773C226.75 82.4773 228.892 83.0398 230.722 84.1648C232.551 85.2898 233.972 86.8693 234.983 88.9034C235.995 90.9375 236.5 93.3125 236.5 96.0284C236.5 98.733 235.995 101.097 234.983 103.119C233.972 105.142 232.551 106.716 230.722 107.841C228.892 108.966 226.75 109.528 224.296 109.528ZM224.313 105.25C225.904 105.25 227.222 104.83 228.267 103.989C229.313 103.148 230.086 102.028 230.586 100.631C231.097 99.233 231.353 97.6932 231.353 96.0114C231.353 94.3409 231.097 92.8068 230.586 91.4091C230.086 90 229.313 88.8693 228.267 88.017C227.222 87.1648 225.904 86.7386 224.313 86.7386C222.711 86.7386 221.381 87.1648 220.324 88.017C219.279 88.8693 218.5 90 217.989 91.4091C217.489 92.8068 217.239 94.3409 217.239 96.0114C217.239 97.6932 217.489 99.233 217.989 100.631C218.5 102.028 219.279 103.148 220.324 103.989C221.381 104.83 222.711 105.25 224.313 105.25ZM245.149 109L237.444 82.8182H242.711L247.842 102.045H248.097L253.245 82.8182H258.512L263.626 101.96H263.881L268.978 82.8182H274.245L266.558 109H261.359L256.041 90.0966H255.649L250.33 109H245.149ZM300.166 82.8182V86.9091H285.865V82.8182H300.166ZM289.701 76.5455H294.797V101.312C294.797 102.301 294.945 103.045 295.24 103.545C295.536 104.034 295.916 104.369 296.382 104.551C296.86 104.722 297.377 104.807 297.934 104.807C298.343 104.807 298.701 104.778 299.007 104.722C299.314 104.665 299.553 104.619 299.723 104.585L300.644 108.795C300.348 108.909 299.928 109.023 299.382 109.136C298.837 109.261 298.155 109.33 297.337 109.341C295.996 109.364 294.746 109.125 293.587 108.625C292.428 108.125 291.49 107.352 290.774 106.307C290.059 105.261 289.701 103.949 289.701 102.369V76.5455ZM314.631 109.528C312.177 109.528 310.035 108.966 308.205 107.841C306.376 106.716 304.955 105.142 303.944 103.119C302.933 101.097 302.427 98.733 302.427 96.0284C302.427 93.3125 302.933 90.9375 303.944 88.9034C304.955 86.8693 306.376 85.2898 308.205 84.1648C310.035 83.0398 312.177 82.4773 314.631 82.4773C317.086 82.4773 319.228 83.0398 321.058 84.1648C322.887 85.2898 324.308 86.8693 325.319 88.9034C326.33 90.9375 326.836 93.3125 326.836 96.0284C326.836 98.733 326.33 101.097 325.319 103.119C324.308 105.142 322.887 106.716 321.058 107.841C319.228 108.966 317.086 109.528 314.631 109.528ZM314.648 105.25C316.239 105.25 317.558 104.83 318.603 103.989C319.648 103.148 320.421 102.028 320.921 100.631C321.433 99.233 321.688 97.6932 321.688 96.0114C321.688 94.3409 321.433 92.8068 320.921 91.4091C320.421 90 319.648 88.8693 318.603 88.017C317.558 87.1648 316.239 86.7386 314.648 86.7386C313.046 86.7386 311.717 87.1648 310.66 88.017C309.614 88.8693 308.836 90 308.325 91.4091C307.825 92.8068 307.575 94.3409 307.575 96.0114C307.575 97.6932 307.825 99.233 308.325 100.631C308.836 102.028 309.614 103.148 310.66 103.989C311.717 104.83 313.046 105.25 314.648 105.25ZM357.973 98.142V82.8182H363.087V109H358.076V104.466H357.803C357.201 105.864 356.235 107.028 354.905 107.96C353.587 108.881 351.945 109.341 349.979 109.341C348.297 109.341 346.808 108.972 345.513 108.233C344.229 107.483 343.218 106.375 342.479 104.909C341.752 103.443 341.388 101.631 341.388 99.4716V82.8182H346.485V98.858C346.485 100.642 346.979 102.062 347.968 103.119C348.956 104.176 350.24 104.705 351.82 104.705C352.774 104.705 353.723 104.466 354.666 103.989C355.621 103.511 356.411 102.79 357.036 101.824C357.672 100.858 357.985 99.6307 357.973 98.142ZM387.634 89.2102L383.015 90.0284C382.822 89.4375 382.515 88.875 382.094 88.3409C381.685 87.8068 381.129 87.3693 380.424 87.0284C379.719 86.6875 378.839 86.517 377.782 86.517C376.339 86.517 375.134 86.8409 374.168 87.4886C373.202 88.125 372.719 88.9489 372.719 89.9602C372.719 90.8352 373.043 91.5398 373.691 92.0739C374.339 92.608 375.384 93.0455 376.827 93.3864L380.986 94.3409C383.396 94.8977 385.191 95.7557 386.373 96.9148C387.555 98.0739 388.146 99.5795 388.146 101.432C388.146 103 387.691 104.398 386.782 105.625C385.884 106.841 384.629 107.795 383.015 108.489C381.413 109.182 379.555 109.528 377.441 109.528C374.509 109.528 372.117 108.903 370.265 107.653C368.413 106.392 367.276 104.602 366.856 102.284L371.782 101.534C372.089 102.818 372.719 103.79 373.674 104.449C374.629 105.097 375.873 105.42 377.407 105.42C379.077 105.42 380.413 105.074 381.413 104.381C382.413 103.676 382.913 102.818 382.913 101.807C382.913 100.989 382.606 100.301 381.992 99.7443C381.39 99.1875 380.464 98.767 379.214 98.483L374.782 97.5114C372.339 96.9545 370.532 96.0682 369.361 94.8523C368.202 93.6364 367.623 92.0966 367.623 90.233C367.623 88.6875 368.055 87.3352 368.918 86.1761C369.782 85.017 370.975 84.1136 372.498 83.4659C374.021 82.8068 375.765 82.4773 377.731 82.4773C380.56 82.4773 382.788 83.0909 384.413 84.3182C386.038 85.5341 387.111 87.1648 387.634 89.2102ZM403.113 109.528C400.534 109.528 398.312 108.977 396.449 107.875C394.596 106.761 393.165 105.199 392.153 103.188C391.153 101.165 390.653 98.7955 390.653 96.0795C390.653 93.3977 391.153 91.0341 392.153 88.9886C393.165 86.9432 394.574 85.3466 396.38 84.1989C398.199 83.0511 400.324 82.4773 402.755 82.4773C404.233 82.4773 405.665 82.7216 407.051 83.2102C408.437 83.6989 409.682 84.4659 410.784 85.5114C411.886 86.5568 412.755 87.9148 413.392 89.5852C414.028 91.2443 414.346 93.2614 414.346 95.6364V97.4432H393.534V93.625H409.352C409.352 92.2841 409.079 91.0966 408.534 90.0625C407.988 89.017 407.221 88.1932 406.233 87.5909C405.255 86.9886 404.108 86.6875 402.79 86.6875C401.358 86.6875 400.108 87.0398 399.04 87.7443C397.983 88.4375 397.165 89.3466 396.585 90.4716C396.017 91.5852 395.733 92.7955 395.733 94.1023V97.0852C395.733 98.8352 396.04 100.324 396.653 101.551C397.278 102.778 398.147 103.716 399.261 104.364C400.375 105 401.676 105.318 403.165 105.318C404.13 105.318 405.011 105.182 405.807 104.909C406.602 104.625 407.29 104.205 407.869 103.648C408.449 103.091 408.892 102.403 409.199 101.585L414.022 102.455C413.636 103.875 412.943 105.119 411.943 106.188C410.954 107.244 409.71 108.068 408.21 108.659C406.721 109.239 405.022 109.528 403.113 109.528ZM429.273 109V74.0909H451.16V78.625H434.54V89.2614H450.018V93.7784H434.54V104.466H451.364V109H429.273ZM459.889 82.8182L465.667 93.0114L471.497 82.8182H477.071L468.906 95.9091L477.139 109H471.565L465.667 99.2159L459.787 109H454.196L462.343 95.9091L454.298 82.8182H459.889ZM480.384 118.818V82.8182H485.361V87.0625H485.787C486.082 86.517 486.509 85.8864 487.065 85.1705C487.622 84.4545 488.395 83.8295 489.384 83.2955C490.372 82.75 491.679 82.4773 493.304 82.4773C495.418 82.4773 497.304 83.0114 498.963 84.0795C500.622 85.1477 501.923 86.6875 502.867 88.6989C503.821 90.7102 504.298 93.1307 504.298 95.9602C504.298 98.7898 503.827 101.216 502.884 103.239C501.94 105.25 500.645 106.801 498.997 107.892C497.35 108.972 495.469 109.511 493.355 109.511C491.764 109.511 490.463 109.244 489.452 108.71C488.452 108.176 487.668 107.551 487.1 106.835C486.531 106.119 486.094 105.483 485.787 104.926H485.48V118.818H480.384ZM485.378 95.9091C485.378 97.75 485.645 99.3636 486.179 100.75C486.713 102.136 487.486 103.222 488.497 104.006C489.509 104.778 490.747 105.165 492.213 105.165C493.736 105.165 495.009 104.761 496.031 103.955C497.054 103.136 497.827 102.028 498.35 100.631C498.884 99.233 499.151 97.6591 499.151 95.9091C499.151 94.1818 498.889 92.6307 498.367 91.2557C497.855 89.8807 497.082 88.7955 496.048 88C495.026 87.2045 493.747 86.8068 492.213 86.8068C490.736 86.8068 489.486 87.1875 488.463 87.9489C487.452 88.7102 486.685 89.7727 486.162 91.1364C485.639 92.5 485.378 94.0909 485.378 95.9091ZM508.089 109V82.8182H513.015V86.9773H513.288C513.765 85.5682 514.606 84.4602 515.81 83.6534C517.026 82.8352 518.401 82.4261 519.935 82.4261C520.253 82.4261 520.628 82.4375 521.06 82.4602C521.503 82.483 521.85 82.5114 522.1 82.5455V87.4205C521.895 87.3636 521.532 87.3011 521.009 87.233C520.486 87.1534 519.964 87.1136 519.441 87.1136C518.236 87.1136 517.163 87.3693 516.219 87.8807C515.288 88.3807 514.549 89.0795 514.003 89.9773C513.458 90.8636 513.185 91.875 513.185 93.0114V109H508.089ZM534.937 109.528C532.358 109.528 530.136 108.977 528.272 107.875C526.42 106.761 524.988 105.199 523.977 103.188C522.977 101.165 522.477 98.7955 522.477 96.0795C522.477 93.3977 522.977 91.0341 523.977 88.9886C524.988 86.9432 526.397 85.3466 528.204 84.1989C530.022 83.0511 532.147 82.4773 534.579 82.4773C536.056 82.4773 537.488 82.7216 538.875 83.2102C540.261 83.6989 541.505 84.4659 542.608 85.5114C543.71 86.5568 544.579 87.9148 545.216 89.5852C545.852 91.2443 546.17 93.2614 546.17 95.6364V97.4432H525.358V93.625H541.176C541.176 92.2841 540.903 91.0966 540.358 90.0625C539.812 89.017 539.045 88.1932 538.056 87.5909C537.079 86.9886 535.931 86.6875 534.613 86.6875C533.181 86.6875 531.931 87.0398 530.863 87.7443C529.806 88.4375 528.988 89.3466 528.409 90.4716C527.841 91.5852 527.556 92.7955 527.556 94.1023V97.0852C527.556 98.8352 527.863 100.324 528.477 101.551C529.102 102.778 529.971 103.716 531.085 104.364C532.198 105 533.5 105.318 534.988 105.318C535.954 105.318 536.835 105.182 537.63 104.909C538.426 104.625 539.113 104.205 539.693 103.648C540.272 103.091 540.716 102.403 541.022 101.585L545.846 102.455C545.46 103.875 544.767 105.119 543.767 106.188C542.778 107.244 541.534 108.068 540.034 108.659C538.545 109.239 536.846 109.528 534.937 109.528ZM569.524 89.2102L564.905 90.0284C564.712 89.4375 564.405 88.875 563.984 88.3409C563.575 87.8068 563.019 87.3693 562.314 87.0284C561.609 86.6875 560.729 86.517 559.672 86.517C558.229 86.517 557.024 86.8409 556.058 87.4886C555.092 88.125 554.609 88.9489 554.609 89.9602C554.609 90.8352 554.933 91.5398 555.581 92.0739C556.229 92.608 557.274 93.0455 558.717 93.3864L562.876 94.3409C565.286 94.8977 567.081 95.7557 568.263 96.9148C569.445 98.0739 570.036 99.5795 570.036 101.432C570.036 103 569.581 104.398 568.672 105.625C567.774 106.841 566.519 107.795 564.905 108.489C563.303 109.182 561.445 109.528 559.331 109.528C556.399 109.528 554.007 108.903 552.155 107.653C550.303 106.392 549.166 104.602 548.746 102.284L553.672 101.534C553.979 102.818 554.609 103.79 555.564 104.449C556.519 105.097 557.763 105.42 559.297 105.42C560.967 105.42 562.303 105.074 563.303 104.381C564.303 103.676 564.803 102.818 564.803 101.807C564.803 100.989 564.496 100.301 563.882 99.7443C563.28 99.1875 562.354 98.767 561.104 98.483L556.672 97.5114C554.229 96.9545 552.422 96.0682 551.251 94.8523C550.092 93.6364 549.513 92.0966 549.513 90.233C549.513 88.6875 549.945 87.3352 550.808 86.1761C551.672 85.017 552.865 84.1136 554.388 83.4659C555.911 82.8068 557.655 82.4773 559.621 82.4773C562.45 82.4773 564.678 83.0909 566.303 84.3182C567.928 85.5341 569.001 87.1648 569.524 89.2102ZM593.339 89.2102L588.719 90.0284C588.526 89.4375 588.219 88.875 587.799 88.3409C587.39 87.8068 586.833 87.3693 586.128 87.0284C585.424 86.6875 584.543 86.517 583.486 86.517C582.043 86.517 580.839 86.8409 579.873 87.4886C578.907 88.125 578.424 88.9489 578.424 89.9602C578.424 90.8352 578.748 91.5398 579.395 92.0739C580.043 92.608 581.089 93.0455 582.532 93.3864L586.691 94.3409C589.1 94.8977 590.895 95.7557 592.077 96.9148C593.259 98.0739 593.85 99.5795 593.85 101.432C593.85 103 593.395 104.398 592.486 105.625C591.589 106.841 590.333 107.795 588.719 108.489C587.117 109.182 585.259 109.528 583.145 109.528C580.214 109.528 577.822 108.903 575.969 107.653C574.117 106.392 572.981 104.602 572.56 102.284L577.486 101.534C577.793 102.818 578.424 103.79 579.378 104.449C580.333 105.097 581.577 105.42 583.111 105.42C584.782 105.42 586.117 105.074 587.117 104.381C588.117 103.676 588.617 102.818 588.617 101.807C588.617 100.989 588.31 100.301 587.697 99.7443C587.094 99.1875 586.168 98.767 584.918 98.483L580.486 97.5114C578.043 96.9545 576.236 96.0682 575.066 94.8523C573.907 93.6364 573.327 92.0966 573.327 90.233C573.327 88.6875 573.759 87.3352 574.623 86.1761C575.486 85.017 576.68 84.1136 578.202 83.4659C579.725 82.8068 581.469 82.4773 583.435 82.4773C586.265 82.4773 588.492 83.0909 590.117 84.3182C591.742 85.5341 592.816 87.1648 593.339 89.2102ZM600.892 109.324C599.96 109.324 599.159 108.994 598.488 108.335C597.818 107.665 597.482 106.858 597.482 105.915C597.482 104.983 597.818 104.187 598.488 103.528C599.159 102.858 599.96 102.523 600.892 102.523C601.823 102.523 602.625 102.858 603.295 103.528C603.965 104.187 604.301 104.983 604.301 105.915C604.301 106.54 604.142 107.114 603.823 107.636C603.517 108.148 603.107 108.557 602.596 108.864C602.085 109.17 601.517 109.324 600.892 109.324ZM609.207 82.8182H614.304V110.705C614.304 112.455 613.986 113.932 613.349 115.136C612.724 116.341 611.793 117.256 610.554 117.881C609.327 118.506 607.81 118.818 606.003 118.818C605.821 118.818 605.651 118.818 605.491 118.818C605.321 118.818 605.145 118.813 604.963 118.801V114.42C605.122 114.42 605.264 114.42 605.389 114.42C605.503 114.42 605.634 114.42 605.781 114.42C606.986 114.42 607.855 114.097 608.389 113.449C608.935 112.813 609.207 111.886 609.207 110.67V82.8182ZM611.73 78.7784C610.844 78.7784 610.082 78.483 609.446 77.892C608.821 77.2898 608.509 76.5739 608.509 75.7443C608.509 74.9034 608.821 74.1875 609.446 73.5966C610.082 72.9943 610.844 72.6932 611.73 72.6932C612.616 72.6932 613.372 72.9943 613.997 73.5966C614.634 74.1875 614.952 74.9034 614.952 75.7443C614.952 76.5739 614.634 77.2898 613.997 77.892C613.372 78.483 612.616 78.7784 611.73 78.7784ZM638.86 89.2102L634.241 90.0284C634.047 89.4375 633.741 88.875 633.32 88.3409C632.911 87.8068 632.354 87.3693 631.65 87.0284C630.945 86.6875 630.064 86.517 629.008 86.517C627.564 86.517 626.36 86.8409 625.394 87.4886C624.428 88.125 623.945 88.9489 623.945 89.9602C623.945 90.8352 624.269 91.5398 624.917 92.0739C625.564 92.608 626.61 93.0455 628.053 93.3864L632.212 94.3409C634.621 94.8977 636.417 95.7557 637.598 96.9148C638.78 98.0739 639.371 99.5795 639.371 101.432C639.371 103 638.917 104.398 638.008 105.625C637.11 106.841 635.854 107.795 634.241 108.489C632.638 109.182 630.78 109.528 628.667 109.528C625.735 109.528 623.343 108.903 621.491 107.653C619.638 106.392 618.502 104.602 618.081 102.284L623.008 101.534C623.314 102.818 623.945 103.79 624.9 104.449C625.854 105.097 627.098 105.42 628.633 105.42C630.303 105.42 631.638 105.074 632.638 104.381C633.638 103.676 634.138 102.818 634.138 101.807C634.138 100.989 633.831 100.301 633.218 99.7443C632.616 99.1875 631.689 98.767 630.439 98.483L626.008 97.5114C623.564 96.9545 621.758 96.0682 620.587 94.8523C619.428 93.6364 618.848 92.0966 618.848 90.233C618.848 88.6875 619.28 87.3352 620.144 86.1761C621.008 85.017 622.201 84.1136 623.723 83.4659C625.246 82.8068 626.991 82.4773 628.956 82.4773C631.786 82.4773 634.013 83.0909 635.638 84.3182C637.263 85.5341 638.337 87.1648 638.86 89.2102ZM653.838 109V82.8182H658.935V109H653.838ZM656.412 78.7784C655.526 78.7784 654.764 78.483 654.128 77.892C653.503 77.2898 653.19 76.5739 653.19 75.7443C653.19 74.9034 653.503 74.1875 654.128 73.5966C654.764 72.9943 655.526 72.6932 656.412 72.6932C657.298 72.6932 658.054 72.9943 658.679 73.5966C659.315 74.1875 659.633 74.9034 659.633 75.7443C659.633 76.5739 659.315 77.2898 658.679 77.892C658.054 78.483 657.298 78.7784 656.412 78.7784ZM668.968 93.4545V109H663.871V82.8182H668.763V87.0795H669.087C669.689 85.6932 670.633 84.5795 671.917 83.7386C673.212 82.8977 674.843 82.4773 676.809 82.4773C678.593 82.4773 680.155 82.8523 681.496 83.6023C682.837 84.3409 683.877 85.4432 684.615 86.9091C685.354 88.375 685.723 90.1875 685.723 92.3466V109H680.627V92.9602C680.627 91.0625 680.133 89.5795 679.144 88.5114C678.155 87.4318 676.797 86.892 675.07 86.892C673.888 86.892 672.837 87.1477 671.917 87.6591C671.008 88.1705 670.286 88.9205 669.752 89.9091C669.229 90.8864 668.968 92.0682 668.968 93.4545ZM709.041 109.58C707.382 109.58 705.882 109.273 704.541 108.659C703.2 108.034 702.138 107.131 701.354 105.949C700.581 104.767 700.194 103.318 700.194 101.602C700.194 100.125 700.479 98.9091 701.047 97.9545C701.615 97 702.382 96.2443 703.348 95.6875C704.314 95.1307 705.393 94.7102 706.587 94.4261C707.78 94.142 708.996 93.9261 710.234 93.7784C711.802 93.5966 713.075 93.4489 714.052 93.3352C715.03 93.2102 715.74 93.0114 716.183 92.7386C716.626 92.4659 716.848 92.0227 716.848 91.4091V91.2898C716.848 89.8011 716.427 88.6477 715.587 87.8295C714.757 87.0114 713.518 86.6023 711.871 86.6023C710.155 86.6023 708.802 86.983 707.814 87.7443C706.837 88.4943 706.16 89.3295 705.785 90.25L700.996 89.1591C701.564 87.5682 702.393 86.2841 703.484 85.3068C704.587 84.3182 705.854 83.6023 707.285 83.1591C708.717 82.7045 710.223 82.4773 711.802 82.4773C712.848 82.4773 713.956 82.6023 715.126 82.8523C716.308 83.0909 717.41 83.5341 718.433 84.1818C719.467 84.8295 720.314 85.7557 720.973 86.9602C721.632 88.1534 721.962 89.7045 721.962 91.6136V109H716.984V105.42H716.78C716.45 106.08 715.956 106.727 715.297 107.364C714.638 108 713.791 108.528 712.757 108.949C711.723 109.369 710.484 109.58 709.041 109.58ZM710.149 105.489C711.558 105.489 712.763 105.21 713.763 104.653C714.774 104.097 715.541 103.369 716.064 102.472C716.598 101.562 716.865 100.591 716.865 99.5568V96.1818C716.683 96.3636 716.331 96.5341 715.808 96.6932C715.297 96.8409 714.712 96.9716 714.052 97.0852C713.393 97.1875 712.751 97.2841 712.126 97.375C711.501 97.4545 710.979 97.5227 710.558 97.5795C709.569 97.7045 708.666 97.9148 707.848 98.2102C707.041 98.5057 706.393 98.9318 705.905 99.4886C705.427 100.034 705.189 100.761 705.189 101.67C705.189 102.932 705.655 103.886 706.587 104.534C707.518 105.17 708.706 105.489 710.149 105.489ZM74.875 135.261C74.6932 133.648 73.9432 132.398 72.625 131.511C71.3068 130.614 69.6477 130.165 67.6477 130.165C66.2159 130.165 64.9773 130.392 63.9318 130.847C62.8864 131.29 62.0739 131.903 61.4943 132.688C60.9261 133.46 60.642 134.341 60.642 135.33C60.642 136.159 60.8352 136.875 61.2216 137.477C61.6193 138.08 62.1364 138.585 62.7727 138.994C63.4205 139.392 64.1136 139.727 64.8523 140C65.5909 140.261 66.3011 140.477 66.983 140.648L70.392 141.534C71.5057 141.807 72.6477 142.176 73.8182 142.642C74.9886 143.108 76.0739 143.722 77.0739 144.483C78.0739 145.244 78.8807 146.188 79.4943 147.312C80.1193 148.438 80.4318 149.784 80.4318 151.352C80.4318 153.33 79.9205 155.085 78.8977 156.619C77.8864 158.153 76.4148 159.364 74.483 160.25C72.5625 161.136 70.2386 161.58 67.5114 161.58C64.8977 161.58 62.6364 161.165 60.7273 160.335C58.8182 159.506 57.3239 158.33 56.2443 156.807C55.1648 155.273 54.5682 153.455 54.4545 151.352H59.7386C59.8409 152.614 60.25 153.665 60.9659 154.506C61.6932 155.335 62.6193 155.955 63.7443 156.364C64.8807 156.761 66.125 156.96 67.4773 156.96C68.9659 156.96 70.2898 156.727 71.4489 156.261C72.6193 155.784 73.5398 155.125 74.2102 154.284C74.8807 153.432 75.2159 152.437 75.2159 151.301C75.2159 150.267 74.9205 149.42 74.3295 148.761C73.75 148.102 72.9602 147.557 71.9602 147.125C70.9716 146.693 69.8523 146.312 68.6023 145.983L64.4773 144.858C61.6818 144.097 59.4659 142.977 57.8295 141.5C56.2045 140.023 55.392 138.068 55.392 135.636C55.392 133.625 55.9375 131.869 57.0284 130.369C58.1193 128.869 59.5966 127.705 61.4602 126.875C63.3239 126.034 65.4261 125.614 67.767 125.614C70.1307 125.614 72.2159 126.028 74.0227 126.858C75.8409 127.688 77.2727 128.83 78.3182 130.284C79.3636 131.727 79.9091 133.386 79.9545 135.261H74.875ZM95.6809 161.528C93.1013 161.528 90.8797 160.977 89.0161 159.875C87.1638 158.761 85.732 157.199 84.7206 155.188C83.7206 153.165 83.2206 150.795 83.2206 148.08C83.2206 145.398 83.7206 143.034 84.7206 140.989C85.732 138.943 87.1411 137.347 88.9479 136.199C90.7661 135.051 92.8911 134.477 95.3229 134.477C96.8002 134.477 98.232 134.722 99.6184 135.21C101.005 135.699 102.249 136.466 103.351 137.511C104.454 138.557 105.323 139.915 105.959 141.585C106.596 143.244 106.914 145.261 106.914 147.636V149.443H86.1013V145.625H101.919C101.919 144.284 101.647 143.097 101.101 142.062C100.556 141.017 99.7888 140.193 98.8002 139.591C97.8229 138.989 96.6752 138.688 95.357 138.688C93.9252 138.688 92.6752 139.04 91.607 139.744C90.5502 140.437 89.732 141.347 89.1524 142.472C88.5843 143.585 88.3002 144.795 88.3002 146.102V149.085C88.3002 150.835 88.607 152.324 89.2206 153.551C89.8456 154.778 90.7149 155.716 91.8286 156.364C92.9422 157 94.2434 157.318 95.732 157.318C96.6979 157.318 97.5786 157.182 98.374 156.909C99.1695 156.625 99.857 156.205 100.437 155.648C101.016 155.091 101.459 154.403 101.766 153.585L106.59 154.455C106.204 155.875 105.51 157.119 104.51 158.188C103.522 159.244 102.277 160.068 100.777 160.659C99.2888 161.239 97.5899 161.528 95.6809 161.528ZM110.649 161V134.818H115.575V138.977H115.847C116.325 137.568 117.166 136.46 118.37 135.653C119.586 134.835 120.961 134.426 122.495 134.426C122.813 134.426 123.188 134.437 123.62 134.46C124.063 134.483 124.41 134.511 124.66 134.545V139.42C124.455 139.364 124.092 139.301 123.569 139.233C123.046 139.153 122.524 139.114 122.001 139.114C120.796 139.114 119.723 139.369 118.779 139.881C117.848 140.381 117.109 141.08 116.563 141.977C116.018 142.864 115.745 143.875 115.745 145.011V161H110.649ZM150.345 134.818L140.851 161H135.396L125.885 134.818H131.356L137.987 154.966H138.26L144.874 134.818H150.345ZM163.608 161.528C161.029 161.528 158.807 160.977 156.944 159.875C155.091 158.761 153.659 157.199 152.648 155.188C151.648 153.165 151.148 150.795 151.148 148.08C151.148 145.398 151.648 143.034 152.648 140.989C153.659 138.943 155.069 137.347 156.875 136.199C158.694 135.051 160.819 134.477 163.25 134.477C164.728 134.477 166.159 134.722 167.546 135.21C168.932 135.699 170.177 136.466 171.279 137.511C172.381 138.557 173.25 139.915 173.887 141.585C174.523 143.244 174.841 145.261 174.841 147.636V149.443H154.029V145.625H169.847C169.847 144.284 169.574 143.097 169.029 142.062C168.483 141.017 167.716 140.193 166.728 139.591C165.75 138.989 164.603 138.688 163.284 138.688C161.853 138.688 160.603 139.04 159.534 139.744C158.478 140.437 157.659 141.347 157.08 142.472C156.512 143.585 156.228 144.795 156.228 146.102V149.085C156.228 150.835 156.534 152.324 157.148 153.551C157.773 154.778 158.642 155.716 159.756 156.364C160.87 157 162.171 157.318 163.659 157.318C164.625 157.318 165.506 157.182 166.302 156.909C167.097 156.625 167.784 156.205 168.364 155.648C168.944 155.091 169.387 154.403 169.694 153.585L174.517 154.455C174.131 155.875 173.438 157.119 172.438 158.188C171.449 159.244 170.205 160.068 168.705 160.659C167.216 161.239 165.517 161.528 163.608 161.528ZM178.576 161V134.818H183.502V138.977H183.775C184.252 137.568 185.093 136.46 186.298 135.653C187.514 134.835 188.889 134.426 190.423 134.426C190.741 134.426 191.116 134.437 191.548 134.46C191.991 134.483 192.338 134.511 192.588 134.545V139.42C192.383 139.364 192.019 139.301 191.497 139.233C190.974 139.153 190.451 139.114 189.928 139.114C188.724 139.114 187.65 139.369 186.707 139.881C185.775 140.381 185.036 141.08 184.491 141.977C183.945 142.864 183.673 143.875 183.673 145.011V161H178.576ZM200.175 126.091V161H195.078V126.091H200.175ZM216.395 161.528C213.816 161.528 211.594 160.977 209.73 159.875C207.878 158.761 206.446 157.199 205.435 155.188C204.435 153.165 203.935 150.795 203.935 148.08C203.935 145.398 204.435 143.034 205.435 140.989C206.446 138.943 207.855 137.347 209.662 136.199C211.48 135.051 213.605 134.477 216.037 134.477C217.515 134.477 218.946 134.722 220.333 135.21C221.719 135.699 222.963 136.466 224.066 137.511C225.168 138.557 226.037 139.915 226.674 141.585C227.31 143.244 227.628 145.261 227.628 147.636V149.443H206.816V145.625H222.634C222.634 144.284 222.361 143.097 221.816 142.062C221.27 141.017 220.503 140.193 219.515 139.591C218.537 138.989 217.39 138.688 216.071 138.688C214.64 138.688 213.39 139.04 212.321 139.744C211.265 140.437 210.446 141.347 209.867 142.472C209.299 143.585 209.015 144.795 209.015 146.102V149.085C209.015 150.835 209.321 152.324 209.935 153.551C210.56 154.778 211.429 155.716 212.543 156.364C213.657 157 214.958 157.318 216.446 157.318C217.412 157.318 218.293 157.182 219.088 156.909C219.884 156.625 220.571 156.205 221.151 155.648C221.73 155.091 222.174 154.403 222.48 153.585L227.304 154.455C226.918 155.875 226.225 157.119 225.225 158.188C224.236 159.244 222.992 160.068 221.492 160.659C220.003 161.239 218.304 161.528 216.395 161.528ZM250.982 141.21L246.363 142.028C246.17 141.437 245.863 140.875 245.443 140.341C245.033 139.807 244.477 139.369 243.772 139.028C243.068 138.687 242.187 138.517 241.13 138.517C239.687 138.517 238.482 138.841 237.516 139.489C236.551 140.125 236.068 140.949 236.068 141.96C236.068 142.835 236.391 143.54 237.039 144.074C237.687 144.608 238.732 145.045 240.176 145.386L244.335 146.341C246.744 146.898 248.539 147.756 249.721 148.915C250.903 150.074 251.494 151.58 251.494 153.432C251.494 155 251.039 156.398 250.13 157.625C249.232 158.841 247.977 159.795 246.363 160.489C244.761 161.182 242.903 161.528 240.789 161.528C237.857 161.528 235.465 160.903 233.613 159.653C231.761 158.392 230.624 156.602 230.204 154.284L235.13 153.534C235.437 154.818 236.068 155.79 237.022 156.449C237.977 157.097 239.221 157.42 240.755 157.42C242.426 157.42 243.761 157.074 244.761 156.381C245.761 155.676 246.261 154.818 246.261 153.807C246.261 152.989 245.954 152.301 245.34 151.744C244.738 151.187 243.812 150.767 242.562 150.483L238.13 149.511C235.687 148.955 233.88 148.068 232.71 146.852C231.551 145.636 230.971 144.097 230.971 142.233C230.971 140.687 231.403 139.335 232.266 138.176C233.13 137.017 234.323 136.114 235.846 135.466C237.369 134.807 239.113 134.477 241.079 134.477C243.908 134.477 246.136 135.091 247.761 136.318C249.386 137.534 250.46 139.165 250.982 141.21ZM274.797 141.21L270.177 142.028C269.984 141.437 269.677 140.875 269.257 140.341C268.848 139.807 268.291 139.369 267.586 139.028C266.882 138.687 266.001 138.517 264.944 138.517C263.501 138.517 262.297 138.841 261.331 139.489C260.365 140.125 259.882 140.949 259.882 141.96C259.882 142.835 260.206 143.54 260.854 144.074C261.501 144.608 262.547 145.045 263.99 145.386L268.149 146.341C270.558 146.898 272.354 147.756 273.535 148.915C274.717 150.074 275.308 151.58 275.308 153.432C275.308 155 274.854 156.398 273.944 157.625C273.047 158.841 271.791 159.795 270.177 160.489C268.575 161.182 266.717 161.528 264.604 161.528C261.672 161.528 259.28 160.903 257.427 159.653C255.575 158.392 254.439 156.602 254.018 154.284L258.944 153.534C259.251 154.818 259.882 155.79 260.836 156.449C261.791 157.097 263.035 157.42 264.569 157.42C266.24 157.42 267.575 157.074 268.575 156.381C269.575 155.676 270.075 154.818 270.075 153.807C270.075 152.989 269.768 152.301 269.155 151.744C268.552 151.187 267.626 150.767 266.376 150.483L261.944 149.511C259.501 148.955 257.694 148.068 256.524 146.852C255.365 145.636 254.785 144.097 254.785 142.233C254.785 140.687 255.217 139.335 256.081 138.176C256.944 137.017 258.138 136.114 259.66 135.466C261.183 134.807 262.927 134.477 264.893 134.477C267.723 134.477 269.95 135.091 271.575 136.318C273.2 137.534 274.274 139.165 274.797 141.21ZM301.059 161.528C298.479 161.528 296.258 160.977 294.394 159.875C292.542 158.761 291.11 157.199 290.099 155.188C289.099 153.165 288.599 150.795 288.599 148.08C288.599 145.398 289.099 143.034 290.099 140.989C291.11 138.943 292.519 137.347 294.326 136.199C296.144 135.051 298.269 134.477 300.701 134.477C302.178 134.477 303.61 134.722 304.996 135.21C306.383 135.699 307.627 136.466 308.729 137.511C309.832 138.557 310.701 139.915 311.337 141.585C311.974 143.244 312.292 145.261 312.292 147.636V149.443H291.479V145.625H307.298C307.298 144.284 307.025 143.097 306.479 142.062C305.934 141.017 305.167 140.193 304.178 139.591C303.201 138.989 302.053 138.688 300.735 138.688C299.303 138.688 298.053 139.04 296.985 139.744C295.928 140.437 295.11 141.347 294.531 142.472C293.962 143.585 293.678 144.795 293.678 146.102V149.085C293.678 150.835 293.985 152.324 294.599 153.551C295.224 154.778 296.093 155.716 297.207 156.364C298.32 157 299.621 157.318 301.11 157.318C302.076 157.318 302.957 157.182 303.752 156.909C304.548 156.625 305.235 156.205 305.815 155.648C306.394 155.091 306.837 154.403 307.144 153.585L311.968 154.455C311.582 155.875 310.889 157.119 309.889 158.188C308.9 159.244 307.656 160.068 306.156 160.659C304.667 161.239 302.968 161.528 301.059 161.528ZM321.123 145.455V161H316.027V134.818H320.919V139.08H321.243C321.845 137.693 322.788 136.58 324.072 135.739C325.368 134.898 326.998 134.477 328.964 134.477C330.748 134.477 332.311 134.852 333.652 135.602C334.993 136.341 336.032 137.443 336.771 138.909C337.51 140.375 337.879 142.187 337.879 144.347V161H332.782V144.96C332.782 143.062 332.288 141.58 331.299 140.511C330.311 139.432 328.953 138.892 327.226 138.892C326.044 138.892 324.993 139.148 324.072 139.659C323.163 140.17 322.442 140.92 321.907 141.909C321.385 142.886 321.123 144.068 321.123 145.455ZM364.254 134.818L354.76 161H349.306L339.794 134.818H345.266L351.897 154.966H352.169L358.783 134.818H364.254ZM367.124 161V134.818H372.221V161H367.124ZM369.698 130.778C368.812 130.778 368.05 130.483 367.414 129.892C366.789 129.29 366.477 128.574 366.477 127.744C366.477 126.903 366.789 126.187 367.414 125.597C368.05 124.994 368.812 124.693 369.698 124.693C370.584 124.693 371.34 124.994 371.965 125.597C372.602 126.187 372.92 126.903 372.92 127.744C372.92 128.574 372.602 129.29 371.965 129.892C371.34 130.483 370.584 130.778 369.698 130.778ZM377.157 161V134.818H382.084V138.977H382.356C382.834 137.568 383.674 136.46 384.879 135.653C386.095 134.835 387.47 134.426 389.004 134.426C389.322 134.426 389.697 134.437 390.129 134.46C390.572 134.483 390.919 134.511 391.169 134.545V139.42C390.964 139.364 390.601 139.301 390.078 139.233C389.555 139.153 389.032 139.114 388.51 139.114C387.305 139.114 386.231 139.369 385.288 139.881C384.356 140.381 383.618 141.08 383.072 141.977C382.527 142.864 382.254 143.875 382.254 145.011V161H377.157ZM403.75 161.528C401.296 161.528 399.154 160.966 397.324 159.841C395.494 158.716 394.074 157.142 393.063 155.119C392.051 153.097 391.546 150.733 391.546 148.028C391.546 145.312 392.051 142.937 393.063 140.903C394.074 138.869 395.494 137.29 397.324 136.165C399.154 135.04 401.296 134.477 403.75 134.477C406.205 134.477 408.347 135.04 410.176 136.165C412.006 137.29 413.426 138.869 414.438 140.903C415.449 142.937 415.955 145.312 415.955 148.028C415.955 150.733 415.449 153.097 414.438 155.119C413.426 157.142 412.006 158.716 410.176 159.841C408.347 160.966 406.205 161.528 403.75 161.528ZM403.767 157.25C405.358 157.25 406.676 156.83 407.722 155.989C408.767 155.148 409.54 154.028 410.04 152.631C410.551 151.233 410.807 149.693 410.807 148.011C410.807 146.341 410.551 144.807 410.04 143.409C409.54 142 408.767 140.869 407.722 140.017C406.676 139.165 405.358 138.739 403.767 138.739C402.165 138.739 400.835 139.165 399.779 140.017C398.733 140.869 397.955 142 397.443 143.409C396.943 144.807 396.693 146.341 396.693 148.011C396.693 149.693 396.943 151.233 397.443 152.631C397.955 154.028 398.733 155.148 399.779 155.989C400.835 156.83 402.165 157.25 403.767 157.25ZM424.82 145.455V161H419.724V134.818H424.616V139.08H424.94C425.542 137.693 426.485 136.58 427.769 135.739C429.065 134.898 430.695 134.477 432.661 134.477C434.445 134.477 436.008 134.852 437.349 135.602C438.69 136.341 439.729 137.443 440.468 138.909C441.207 140.375 441.576 142.187 441.576 144.347V161H436.479V144.96C436.479 143.062 435.985 141.58 434.996 140.511C434.008 139.432 432.65 138.892 430.923 138.892C429.741 138.892 428.69 139.148 427.769 139.659C426.86 140.17 426.138 140.92 425.604 141.909C425.082 142.886 424.82 144.068 424.82 145.455ZM446.491 161V134.818H451.383V139.08H451.707C452.253 137.636 453.145 136.511 454.383 135.705C455.622 134.886 457.105 134.477 458.832 134.477C460.582 134.477 462.048 134.886 463.23 135.705C464.423 136.523 465.304 137.648 465.872 139.08H466.145C466.77 137.682 467.764 136.568 469.128 135.739C470.491 134.898 472.116 134.477 474.003 134.477C476.378 134.477 478.315 135.222 479.815 136.71C481.326 138.199 482.082 140.443 482.082 143.443V161H476.985V143.92C476.985 142.148 476.503 140.864 475.537 140.068C474.571 139.273 473.417 138.875 472.076 138.875C470.417 138.875 469.128 139.386 468.207 140.409C467.287 141.42 466.826 142.722 466.826 144.312V161H461.747V143.597C461.747 142.176 461.304 141.034 460.417 140.17C459.531 139.307 458.378 138.875 456.957 138.875C455.991 138.875 455.099 139.131 454.281 139.642C453.474 140.142 452.821 140.841 452.321 141.739C451.832 142.636 451.588 143.676 451.588 144.858V161H446.491ZM498.277 161.528C495.698 161.528 493.476 160.977 491.612 159.875C489.76 158.761 488.328 157.199 487.317 155.188C486.317 153.165 485.817 150.795 485.817 148.08C485.817 145.398 486.317 143.034 487.317 140.989C488.328 138.943 489.737 137.347 491.544 136.199C493.362 135.051 495.487 134.477 497.919 134.477C499.396 134.477 500.828 134.722 502.215 135.21C503.601 135.699 504.845 136.466 505.948 137.511C507.05 138.557 507.919 139.915 508.556 141.585C509.192 143.244 509.51 145.261 509.51 147.636V149.443H488.698V145.625H504.516C504.516 144.284 504.243 143.097 503.698 142.062C503.152 141.017 502.385 140.193 501.396 139.591C500.419 138.989 499.271 138.688 497.953 138.688C496.521 138.688 495.271 139.04 494.203 139.744C493.146 140.437 492.328 141.347 491.749 142.472C491.181 143.585 490.896 144.795 490.896 146.102V149.085C490.896 150.835 491.203 152.324 491.817 153.551C492.442 154.778 493.311 155.716 494.425 156.364C495.538 157 496.84 157.318 498.328 157.318C499.294 157.318 500.175 157.182 500.97 156.909C501.766 156.625 502.453 156.205 503.033 155.648C503.612 155.091 504.056 154.403 504.362 153.585L509.186 154.455C508.8 155.875 508.107 157.119 507.107 158.188C506.118 159.244 504.874 160.068 503.374 160.659C501.885 161.239 500.186 161.528 498.277 161.528ZM518.341 145.455V161H513.245V134.818H518.137V139.08H518.461C519.063 137.693 520.006 136.58 521.29 135.739C522.586 134.898 524.216 134.477 526.182 134.477C527.966 134.477 529.529 134.852 530.87 135.602C532.211 136.341 533.251 137.443 533.989 138.909C534.728 140.375 535.097 142.187 535.097 144.347V161H530.001V144.96C530.001 143.062 529.506 141.58 528.518 140.511C527.529 139.432 526.171 138.892 524.444 138.892C523.262 138.892 522.211 139.148 521.29 139.659C520.381 140.17 519.66 140.92 519.126 141.909C518.603 142.886 518.341 144.068 518.341 145.455ZM552.234 134.818V138.909H537.933V134.818H552.234ZM541.768 128.545H546.865V153.312C546.865 154.301 547.012 155.045 547.308 155.545C547.603 156.034 547.984 156.369 548.45 156.551C548.927 156.722 549.444 156.807 550.001 156.807C550.41 156.807 550.768 156.778 551.075 156.722C551.382 156.665 551.62 156.619 551.791 156.585L552.711 160.795C552.416 160.909 551.995 161.023 551.45 161.136C550.904 161.261 550.223 161.33 549.404 161.341C548.064 161.364 546.814 161.125 545.654 160.625C544.495 160.125 543.558 159.352 542.842 158.307C542.126 157.261 541.768 155.949 541.768 154.369V128.545Z" fill="black"/>
<path id="December 01, 2024" d="M60.1989 222H54.0774V203.091H60.3928C62.2455 203.091 63.8366 203.469 65.1662 204.227C66.4957 204.978 67.5144 206.058 68.2223 207.467C68.9363 208.871 69.2933 210.554 69.2933 212.518C69.2933 214.487 68.9332 216.18 68.2131 217.596C67.4991 219.012 66.465 220.101 65.1108 220.864C63.7566 221.621 62.1193 222 60.1989 222ZM56.9304 219.507H60.0419C61.4822 219.507 62.6795 219.236 63.6335 218.695C64.5876 218.147 65.3016 217.356 65.7756 216.322C66.2495 215.281 66.4865 214.013 66.4865 212.518C66.4865 211.034 66.2495 209.776 65.7756 208.741C65.3078 207.707 64.6091 206.923 63.6797 206.387C62.7502 205.852 61.5961 205.584 60.2173 205.584H56.9304V219.507ZM77.6917 222.286C76.2945 222.286 75.0911 221.988 74.0816 221.391C73.0783 220.787 72.3027 219.941 71.7549 218.852C71.2133 217.756 70.9424 216.473 70.9424 215.001C70.9424 213.549 71.2133 212.268 71.7549 211.161C72.3027 210.053 73.066 209.188 74.0447 208.566C75.0295 207.944 76.1806 207.634 77.4978 207.634C78.298 207.634 79.0736 207.766 79.8245 208.031C80.5755 208.295 81.2495 208.711 81.8465 209.277C82.4436 209.843 82.9145 210.579 83.2592 211.484C83.6039 212.382 83.7762 213.475 83.7762 214.761V215.74H72.5028V213.672H81.071C81.071 212.946 80.9232 212.302 80.6278 211.742C80.3323 211.176 79.9169 210.73 79.3813 210.403C78.852 210.077 78.2303 209.914 77.5163 209.914C76.7407 209.914 76.0636 210.105 75.485 210.487C74.9126 210.862 74.4694 211.354 74.1555 211.964C73.8477 212.567 73.6938 213.223 73.6938 213.93V215.546C73.6938 216.494 73.86 217.3 74.1924 217.965C74.531 218.63 75.0018 219.138 75.6051 219.489C76.2083 219.833 76.9131 220.006 77.7194 220.006C78.2426 220.006 78.7196 219.932 79.1505 219.784C79.5814 219.63 79.9538 219.402 80.2677 219.101C80.5816 218.799 80.8217 218.427 80.9879 217.984L83.6008 218.455C83.3915 219.224 83.016 219.898 82.4744 220.477C81.9389 221.049 81.2649 221.495 80.4524 221.815C79.646 222.129 78.7258 222.286 77.6917 222.286ZM91.773 222.286C90.4004 222.286 89.2185 221.975 88.2275 221.354C87.2427 220.726 86.4856 219.861 85.9562 218.759C85.4269 217.657 85.1622 216.396 85.1622 214.974C85.1622 213.533 85.433 212.262 85.9747 211.161C86.5164 210.053 87.2796 209.188 88.2645 208.566C89.2493 207.944 90.4096 207.634 91.7453 207.634C92.8225 207.634 93.7827 207.834 94.626 208.234C95.4692 208.628 96.1494 209.182 96.6664 209.896C97.1896 210.61 97.5005 211.444 97.599 212.398H94.9122C94.7645 211.733 94.4259 211.161 93.8966 210.68C93.3734 210.2 92.6717 209.96 91.7914 209.96C91.022 209.96 90.348 210.163 89.7694 210.57C89.197 210.97 88.7507 211.542 88.4307 212.287C88.1106 213.026 87.9505 213.9 87.9505 214.909C87.9505 215.943 88.1075 216.836 88.4214 217.587C88.7353 218.338 89.1785 218.919 89.751 219.332C90.3296 219.744 91.0097 219.95 91.7914 219.95C92.3146 219.95 92.7886 219.855 93.2133 219.664C93.6442 219.467 94.0043 219.187 94.2936 218.824C94.589 218.461 94.7952 218.024 94.9122 217.513H97.599C97.5005 218.43 97.202 219.249 96.7034 219.969C96.2048 220.689 95.537 221.255 94.6998 221.668C93.8689 222.08 92.8932 222.286 91.773 222.286ZM105.623 222.286C104.226 222.286 103.023 221.988 102.013 221.391C101.01 220.787 100.234 219.941 99.6866 218.852C99.145 217.756 98.8741 216.473 98.8741 215.001C98.8741 213.549 99.145 212.268 99.6866 211.161C100.234 210.053 100.998 209.188 101.976 208.566C102.961 207.944 104.112 207.634 105.43 207.634C106.23 207.634 107.005 207.766 107.756 208.031C108.507 208.295 109.181 208.711 109.778 209.277C110.375 209.843 110.846 210.579 111.191 211.484C111.536 212.382 111.708 213.475 111.708 214.761V215.74H100.435V213.672H109.003C109.003 212.946 108.855 212.302 108.56 211.742C108.264 211.176 107.849 210.73 107.313 210.403C106.784 210.077 106.162 209.914 105.448 209.914C104.672 209.914 103.995 210.105 103.417 210.487C102.844 210.862 102.401 211.354 102.087 211.964C101.779 212.567 101.626 213.223 101.626 213.93V215.546C101.626 216.494 101.792 217.3 102.124 217.965C102.463 218.63 102.934 219.138 103.537 219.489C104.14 219.833 104.845 220.006 105.651 220.006C106.174 220.006 106.651 219.932 107.082 219.784C107.513 219.63 107.886 219.402 108.199 219.101C108.513 218.799 108.753 218.427 108.92 217.984L111.533 218.455C111.323 219.224 110.948 219.898 110.406 220.477C109.871 221.049 109.197 221.495 108.384 221.815C107.578 222.129 106.658 222.286 105.623 222.286ZM113.731 222V207.818H116.381V210.126H116.556C116.852 209.345 117.335 208.735 118.006 208.298C118.677 207.855 119.48 207.634 120.416 207.634C121.364 207.634 122.158 207.855 122.798 208.298C123.444 208.741 123.921 209.351 124.229 210.126H124.377C124.715 209.369 125.254 208.766 125.992 208.317C126.731 207.861 127.611 207.634 128.633 207.634C129.919 207.634 130.969 208.037 131.781 208.843C132.6 209.649 133.009 210.865 133.009 212.49V222H130.249V212.749C130.249 211.788 129.987 211.093 129.464 210.662C128.941 210.231 128.316 210.016 127.59 210.016C126.691 210.016 125.992 210.293 125.494 210.847C124.995 211.394 124.746 212.099 124.746 212.961V222H121.994V212.573C121.994 211.804 121.754 211.185 121.274 210.717C120.794 210.25 120.169 210.016 119.4 210.016C118.877 210.016 118.394 210.154 117.95 210.431C117.513 210.702 117.159 211.08 116.889 211.567C116.624 212.053 116.492 212.616 116.492 213.256V222H113.731ZM135.891 222V203.091H138.652V210.117H138.818C138.978 209.822 139.209 209.48 139.51 209.092C139.812 208.705 140.231 208.366 140.766 208.077C141.302 207.781 142.009 207.634 142.89 207.634C144.035 207.634 145.056 207.923 145.955 208.501C146.854 209.08 147.558 209.914 148.069 211.004C148.586 212.093 148.845 213.404 148.845 214.937C148.845 216.469 148.589 217.784 148.079 218.879C147.568 219.969 146.866 220.809 145.973 221.4C145.081 221.985 144.062 222.277 142.917 222.277C142.056 222.277 141.351 222.132 140.803 221.843C140.261 221.554 139.837 221.215 139.529 220.827C139.221 220.44 138.984 220.095 138.818 219.793H138.587V222H135.891ZM138.596 214.909C138.596 215.906 138.741 216.78 139.03 217.531C139.32 218.282 139.738 218.87 140.286 219.295C140.834 219.713 141.505 219.923 142.299 219.923C143.124 219.923 143.813 219.704 144.367 219.267C144.921 218.824 145.339 218.224 145.623 217.467C145.912 216.71 146.057 215.857 146.057 214.909C146.057 213.973 145.915 213.133 145.632 212.388C145.355 211.644 144.936 211.056 144.376 210.625C143.822 210.194 143.13 209.979 142.299 209.979C141.499 209.979 140.821 210.185 140.268 210.597C139.72 211.01 139.304 211.585 139.021 212.324C138.738 213.062 138.596 213.924 138.596 214.909ZM157.017 222.286C155.62 222.286 154.416 221.988 153.407 221.391C152.404 220.787 151.628 219.941 151.08 218.852C150.539 217.756 150.268 216.473 150.268 215.001C150.268 213.549 150.539 212.268 151.08 211.161C151.628 210.053 152.391 209.188 153.37 208.566C154.355 207.944 155.506 207.634 156.823 207.634C157.623 207.634 158.399 207.766 159.15 208.031C159.901 208.295 160.575 208.711 161.172 209.277C161.769 209.843 162.24 210.579 162.585 211.484C162.929 212.382 163.102 213.475 163.102 214.761V215.74H151.828V213.672H160.396C160.396 212.946 160.249 212.302 159.953 211.742C159.658 211.176 159.242 210.73 158.707 210.403C158.177 210.077 157.556 209.914 156.842 209.914C156.066 209.914 155.389 210.105 154.81 210.487C154.238 210.862 153.795 211.354 153.481 211.964C153.173 212.567 153.019 213.223 153.019 213.93V215.546C153.019 216.494 153.185 217.3 153.518 217.965C153.856 218.63 154.327 219.138 154.93 219.489C155.534 219.833 156.238 220.006 157.045 220.006C157.568 220.006 158.045 219.932 158.476 219.784C158.907 219.63 159.279 219.402 159.593 219.101C159.907 218.799 160.147 218.427 160.313 217.984L162.926 218.455C162.717 219.224 162.341 219.898 161.8 220.477C161.264 221.049 160.59 221.495 159.778 221.815C158.971 222.129 158.051 222.286 157.017 222.286ZM165.125 222V207.818H167.793V210.071H167.941C168.199 209.308 168.655 208.708 169.307 208.271C169.966 207.827 170.711 207.606 171.542 207.606C171.714 207.606 171.917 207.612 172.151 207.624C172.391 207.637 172.579 207.652 172.714 207.67V210.311C172.603 210.28 172.406 210.246 172.123 210.21C171.84 210.166 171.557 210.145 171.274 210.145C170.621 210.145 170.04 210.283 169.529 210.56C169.024 210.831 168.624 211.21 168.328 211.696C168.033 212.176 167.885 212.724 167.885 213.339V222H165.125ZM186.45 222.314C184.991 222.308 183.745 221.923 182.711 221.16C181.677 220.397 180.886 219.286 180.338 217.827C179.79 216.368 179.516 214.611 179.516 212.555C179.516 210.505 179.79 208.754 180.338 207.301C180.892 205.848 181.686 204.741 182.72 203.977C183.76 203.214 185.004 202.832 186.45 202.832C187.897 202.832 189.137 203.217 190.171 203.987C191.205 204.75 191.996 205.858 192.544 207.31C193.098 208.757 193.375 210.505 193.375 212.555C193.375 214.617 193.101 216.377 192.553 217.836C192.005 219.289 191.214 220.4 190.18 221.169C189.146 221.932 187.903 222.314 186.45 222.314ZM186.45 219.849C187.73 219.849 188.731 219.224 189.451 217.974C190.177 216.725 190.54 214.918 190.54 212.555C190.54 210.985 190.374 209.659 190.042 208.575C189.716 207.486 189.245 206.661 188.629 206.101C188.02 205.535 187.293 205.251 186.45 205.251C185.176 205.251 184.176 205.879 183.449 207.135C182.723 208.391 182.357 210.197 182.351 212.555C182.351 214.13 182.514 215.463 182.84 216.553C183.172 217.636 183.643 218.458 184.253 219.018C184.862 219.572 185.595 219.849 186.45 219.849ZM202.784 203.091V222H199.922V205.953H199.811L195.287 208.908V206.175L200.005 203.091H202.784ZM209.396 219.415L209.258 220.421C209.165 221.16 209.008 221.929 208.787 222.729C208.571 223.536 208.347 224.284 208.113 224.973C207.885 225.662 207.697 226.21 207.55 226.616H205.592C205.672 226.235 205.783 225.718 205.925 225.065C206.066 224.419 206.205 223.696 206.34 222.896C206.475 222.095 206.577 221.28 206.645 220.449L206.737 219.415H209.396ZM217.754 222V219.932L224.152 213.303C224.836 212.582 225.399 211.951 225.842 211.41C226.291 210.862 226.627 210.342 226.848 209.849C227.07 209.357 227.181 208.834 227.181 208.28C227.181 207.652 227.033 207.11 226.738 206.655C226.442 206.193 226.039 205.839 225.528 205.593C225.017 205.341 224.442 205.214 223.802 205.214C223.124 205.214 222.534 205.353 222.029 205.63C221.524 205.907 221.136 206.298 220.865 206.803C220.595 207.307 220.459 207.898 220.459 208.575H217.736C217.736 207.424 218 206.418 218.53 205.556C219.059 204.694 219.785 204.027 220.709 203.553C221.632 203.072 222.681 202.832 223.857 202.832C225.045 202.832 226.091 203.069 226.996 203.543C227.907 204.011 228.618 204.651 229.129 205.464C229.64 206.27 229.895 207.181 229.895 208.197C229.895 208.898 229.763 209.585 229.498 210.256C229.24 210.927 228.787 211.674 228.141 212.499C227.495 213.318 226.596 214.312 225.445 215.482L221.687 219.415V219.553H230.2V222H217.754ZM239.242 222.314C237.784 222.308 236.537 221.923 235.503 221.16C234.469 220.397 233.678 219.286 233.13 217.827C232.582 216.368 232.308 214.611 232.308 212.555C232.308 210.505 232.582 208.754 233.13 207.301C233.684 205.848 234.478 204.741 235.512 203.977C236.553 203.214 237.796 202.832 239.242 202.832C240.689 202.832 241.929 203.217 242.963 203.987C243.997 204.75 244.788 205.858 245.336 207.31C245.89 208.757 246.167 210.505 246.167 212.555C246.167 214.617 245.893 216.377 245.345 217.836C244.798 219.289 244.007 220.4 242.972 221.169C241.938 221.932 240.695 222.314 239.242 222.314ZM239.242 219.849C240.523 219.849 241.523 219.224 242.243 217.974C242.969 216.725 243.333 214.918 243.333 212.555C243.333 210.985 243.166 209.659 242.834 208.575C242.508 207.486 242.037 206.661 241.421 206.101C240.812 205.535 240.086 205.251 239.242 205.251C237.968 205.251 236.968 205.879 236.242 207.135C235.515 208.391 235.149 210.197 235.143 212.555C235.143 214.13 235.306 215.463 235.632 216.553C235.965 217.636 236.436 218.458 237.045 219.018C237.654 219.572 238.387 219.849 239.242 219.849ZM248.402 222V219.932L254.801 213.303C255.484 212.582 256.047 211.951 256.491 211.41C256.94 210.862 257.275 210.342 257.497 209.849C257.719 209.357 257.829 208.834 257.829 208.28C257.829 207.652 257.682 207.11 257.386 206.655C257.091 206.193 256.688 205.839 256.177 205.593C255.666 205.341 255.09 205.214 254.45 205.214C253.773 205.214 253.182 205.353 252.677 205.63C252.173 205.907 251.785 206.298 251.514 206.803C251.243 207.307 251.108 207.898 251.108 208.575H248.384C248.384 207.424 248.649 206.418 249.178 205.556C249.707 204.694 250.434 204.027 251.357 203.553C252.28 203.072 253.33 202.832 254.505 202.832C255.693 202.832 256.74 203.069 257.645 203.543C258.556 204.011 259.267 204.651 259.777 205.464C260.288 206.27 260.544 207.181 260.544 208.197C260.544 208.898 260.411 209.585 260.147 210.256C259.888 210.927 259.436 211.674 258.79 212.499C258.143 213.318 257.245 214.312 256.094 215.482L252.336 219.415V219.553H260.849V222H248.402ZM262.505 218.307V215.999L270.676 203.091H272.495V206.489H271.34L265.496 215.74V215.888H276.696V218.307H262.505ZM271.47 222V217.605L271.488 216.553V203.091H274.193V222H271.47Z" fill="black" fill-opacity="0.6"/>
<line id="Line 1" x1="-1.5" y1="331.5" x2="777.5" y2="331.5" stroke="black" stroke-opacity="0.35" stroke-linecap="square" stroke-linejoin="bevel" stroke-dasharray="10 10"/>
<g id="Frame 13">
<g id="Frame 15">
<rect x="572.5" y="357.5" width="60" height="60" rx="9.5" stroke="black" stroke-opacity="0.4"/>
<g id="Frame">
<g id="Group 4">
<path id="Vector" d="M612 389V395C612 395.53 611.789 396.039 611.414 396.414C611.039 396.789 610.53 397 610 397H596C595.47 397 594.961 396.789 594.586 396.414C594.211 396.039 594 395.53 594 395V381C594 380.47 594.211 379.961 594.586 379.586C594.961 379.211 595.47 379 596 379H602" stroke="black" stroke-opacity="0.6" stroke-width="2" stroke-linecap="round" stroke-linejoin="round"/>
<path id="Vector_2" d="M612 379L603 388" stroke="black" stroke-opacity="0.6" stroke-width="2" stroke-linecap="round" stroke-linejoin="round"/>
<path id="Vector_3" d="M606 379H612V385" stroke="black" stroke-opacity="0.6" stroke-width="2" stroke-linecap="round" stroke-linejoin="round"/>
</g>
</g>
</g>
<g id="Frame 14">
<rect x="663.5" y="357.5" width="60" height="60" rx="9.5" stroke="black" stroke-opacity="0.4"/>
<g id="Frame_2">
<g id="Group 3">
<path id="Vector_4" d="M681.875 379.75H705.125" stroke="black" stroke-opacity="0.6" stroke-width="2" stroke-linecap="round" stroke-linejoin="round"/>
<path id="Vector_5" d="M702.542 379.75V397.833C702.542 399.125 701.25 400.417 699.958 400.417H687.042C685.75 400.417 684.458 399.125 684.458 397.833V379.75" stroke="black" stroke-opacity="0.6" stroke-width="2" stroke-linecap="round" stroke-linejoin="round"/>
<path id="Vector_6" d="M688.333 379.75V377.167C688.333 375.875 689.625 374.583 690.917 374.583H696.083C697.375 374.583 698.667 375.875 698.667 377.167V379.75" stroke="black" stroke-opacity="0.6" stroke-width="2" stroke-linecap="round" stroke-linejoin="round"/>
<path id="Vector_7" d="M690.917 386.208V393.958" stroke="black" stroke-opacity="0.6" stroke-width="2" stroke-linecap="round" stroke-linejoin="round"/>
<path id="Vector_8" d="M696.083 386.208V393.958" stroke="black" stroke-opacity="0.6" stroke-width="2" stroke-linecap="round" stroke-linejoin="round"/>
</g>
</g>
</g>
<g id="Frame 16">
<rect x="481.5" y="358.5" width="60" height="60" rx="9.5" stroke="black" stroke-opacity="0.4"/>
<g id="Frame_3">
<rect width="31" height="31" transform="translate(496 373)" fill="white"/>
<path id="Vector_9" d="M510.887 375.964C510.943 375.85 511.031 375.754 511.139 375.686C511.247 375.619 511.372 375.583 511.5 375.583C511.628 375.583 511.753 375.619 511.861 375.686C511.97 375.754 512.057 375.85 512.114 375.964L515.097 382.008C515.294 382.406 515.584 382.75 515.943 383.011C516.302 383.272 516.719 383.442 517.158 383.506L523.83 384.483C523.957 384.501 524.076 384.555 524.173 384.637C524.271 384.719 524.344 384.827 524.383 384.949C524.423 385.07 524.427 385.2 524.397 385.324C524.366 385.448 524.302 385.561 524.21 385.651L519.384 390.35C519.066 390.66 518.828 391.043 518.691 391.465C518.553 391.888 518.52 392.337 518.595 392.775L519.734 399.415C519.757 399.541 519.743 399.671 519.695 399.79C519.647 399.909 519.566 400.012 519.463 400.088C519.359 400.163 519.236 400.208 519.108 400.217C518.98 400.225 518.852 400.198 518.739 400.138L512.774 397.002C512.381 396.795 511.943 396.688 511.499 396.688C511.055 396.688 510.618 396.795 510.225 397.002L504.262 400.138C504.148 400.198 504.021 400.225 503.893 400.216C503.765 400.207 503.642 400.162 503.539 400.087C503.435 400.011 503.355 399.908 503.307 399.789C503.259 399.671 503.245 399.541 503.267 399.415L504.405 392.777C504.48 392.338 504.448 391.889 504.31 391.466C504.173 391.043 503.934 390.66 503.616 390.35L498.79 385.652C498.698 385.563 498.632 385.45 498.601 385.325C498.57 385.201 498.575 385.07 498.614 384.948C498.654 384.826 498.727 384.718 498.825 384.635C498.923 384.553 499.043 384.5 499.17 384.482L505.841 383.506C506.281 383.442 506.698 383.273 507.057 383.012C507.417 382.751 507.707 382.406 507.904 382.008L510.887 375.964Z" stroke="black" stroke-opacity="0.6" stroke-width="2" stroke-linecap="round" stroke-linejoin="round"/>
</g>
</g>
</g>
</g>
<rect x="0.5" y="0.5" width="777" height="446" rx="19.5" stroke="black" stroke-opacity="0.35" stroke-linecap="square" stroke-dasharray="10 10"/>
</g>
<defs>
<filter id="filter0_d_7_3" x="-103" y="-93" width="984" height="653" filterUnits="userSpaceOnUse" color-interpolation-filters="sRGB">
<feFlood flood-opacity="0" result="BackgroundImageFix"/>
<feColorMatrix in="SourceAlpha" type="matrix" values="0 0 0 0 0 0 0 0 0 0 0 0 0 0 0 0 0 0 127 0" result="hardAlpha"/>
<feMorphology radius="12" operator="dilate" in="SourceAlpha" result="effect1_dropShadow_7_3"/>
<feOffset dy="10"/>
<feGaussianBlur stdDeviation="45.5"/>
<feComposite in2="hardAlpha" operator="out"/>
<feColorMatrix type="matrix" values="0 0 0 0 0 0 0 0 0 0 0 0 0 0 0 0 0 0 0.25 0"/>
<feBlend mode="normal" in2="BackgroundImageFix" result="effect1_dropShadow_7_3"/>
<feBlend mode="normal" in="SourceGraphic" in2="effect1_dropShadow_7_3" result="shape"/>
</filter>
<clipPath id="clip0_7_3">
<rect width="778" height="447" rx="20" fill="white"/>
</clipPath>
</defs>
</svg>
