<svg width="778" height="447" viewBox="0 0 778 447" fill="none" xmlns="http://www.w3.org/2000/svg">
<g id="Frame 11" filter="url(#filter0_d_12_39)">
<g clip-path="url(#clip0_12_39)">
<rect width="778" height="447" rx="20" fill="white"/>
<path id="Running LLM&#226;&#128;&#153;s Locally using Ollama and Vercel AI SDK" d="M55.8352 109V74.0909H68.2784C70.983 74.0909 73.2273 74.5568 75.0114 75.4886C76.8068 76.4205 78.1477 77.7102 79.0341 79.358C79.9205 80.9943 80.3636 82.8864 80.3636 85.0341C80.3636 87.1705 79.9148 89.0511 79.017 90.6761C78.1307 92.2898 76.7898 93.5455 74.9943 94.4432C73.2102 95.3409 70.9659 95.7898 68.2614 95.7898H58.8352V91.2557H67.7841C69.4886 91.2557 70.875 91.0114 71.9432 90.5227C73.0227 90.0341 73.8125 89.3239 74.3125 88.392C74.8125 87.4602 75.0625 86.3409 75.0625 85.0341C75.0625 83.7159 74.8068 82.5739 74.2955 81.608C73.7955 80.642 73.0057 79.9034 71.9261 79.392C70.858 78.8693 69.4545 78.608 67.7159 78.608H61.1023V109H55.8352ZM73.0682 93.25L81.6932 109H75.6932L67.2386 93.25H73.0682ZM101.029 98.142V82.8182H106.142V109H101.131V104.466H100.858C100.256 105.864 99.2902 107.028 97.9607 107.96C96.6425 108.881 95.0005 109.341 93.0345 109.341C91.3527 109.341 89.8641 108.972 88.5686 108.233C87.2845 107.483 86.2732 106.375 85.5345 104.909C84.8073 103.443 84.4436 101.631 84.4436 99.4716V82.8182H89.5402V98.858C89.5402 100.642 90.0345 102.062 91.0232 103.119C92.0118 104.176 93.2959 104.705 94.8755 104.705C95.83 104.705 96.7789 104.466 97.722 103.989C98.6766 103.511 99.4664 102.79 100.091 101.824C100.728 100.858 101.04 99.6307 101.029 98.142ZM116.167 93.4545V109H111.071V82.8182H115.963V87.0795H116.286C116.889 85.6932 117.832 84.5795 119.116 83.7386C120.411 82.8977 122.042 82.4773 124.008 82.4773C125.792 82.4773 127.355 82.8523 128.696 83.6023C130.036 84.3409 131.076 85.4432 131.815 86.9091C132.553 88.375 132.923 90.1875 132.923 92.3466V109H127.826V92.9602C127.826 91.0625 127.332 89.5795 126.343 88.5114C125.355 87.4318 123.997 86.892 122.269 86.892C121.088 86.892 120.036 87.1477 119.116 87.6591C118.207 88.1705 117.485 88.9205 116.951 89.9091C116.428 90.8864 116.167 92.0682 116.167 93.4545ZM142.935 93.4545V109H137.838V82.8182H142.73V87.0795H143.054C143.656 85.6932 144.599 84.5795 145.883 83.7386C147.179 82.8977 148.81 82.4773 150.776 82.4773C152.56 82.4773 154.122 82.8523 155.463 83.6023C156.804 84.3409 157.844 85.4432 158.582 86.9091C159.321 88.375 159.69 90.1875 159.69 92.3466V109H154.594V92.9602C154.594 91.0625 154.099 89.5795 153.111 88.5114C152.122 87.4318 150.764 86.892 149.037 86.892C147.855 86.892 146.804 87.1477 145.883 87.6591C144.974 88.1705 144.253 88.9205 143.719 89.9091C143.196 90.8864 142.935 92.0682 142.935 93.4545ZM164.606 109V82.8182H169.702V109H164.606ZM167.179 78.7784C166.293 78.7784 165.532 78.483 164.895 77.892C164.27 77.2898 163.958 76.5739 163.958 75.7443C163.958 74.9034 164.27 74.1875 164.895 73.5966C165.532 72.9943 166.293 72.6932 167.179 72.6932C168.066 72.6932 168.821 72.9943 169.446 73.5966C170.083 74.1875 170.401 74.9034 170.401 75.7443C170.401 76.5739 170.083 77.2898 169.446 77.892C168.821 78.483 168.066 78.7784 167.179 78.7784ZM179.735 93.4545V109H174.639V82.8182H179.531V87.0795H179.855C180.457 85.6932 181.4 84.5795 182.684 83.7386C183.98 82.8977 185.61 82.4773 187.576 82.4773C189.36 82.4773 190.923 82.8523 192.264 83.6023C193.605 84.3409 194.644 85.4432 195.383 86.9091C196.122 88.375 196.491 90.1875 196.491 92.3466V109H191.394V92.9602C191.394 91.0625 190.9 89.5795 189.911 88.5114C188.923 87.4318 187.565 86.892 185.838 86.892C184.656 86.892 183.605 87.1477 182.684 87.6591C181.775 88.1705 181.053 88.9205 180.519 89.9091C179.997 90.8864 179.735 92.0682 179.735 93.4545ZM212.383 119.364C210.304 119.364 208.514 119.091 207.014 118.545C205.525 118 204.31 117.278 203.366 116.381C202.423 115.483 201.719 114.5 201.253 113.432L205.633 111.625C205.94 112.125 206.349 112.653 206.861 113.21C207.383 113.778 208.088 114.261 208.974 114.659C209.872 115.057 211.025 115.256 212.435 115.256C214.366 115.256 215.963 114.784 217.224 113.841C218.486 112.909 219.116 111.42 219.116 109.375V104.227H218.792C218.486 104.784 218.042 105.403 217.463 106.085C216.895 106.767 216.111 107.358 215.111 107.858C214.111 108.358 212.81 108.608 211.207 108.608C209.139 108.608 207.275 108.125 205.616 107.159C203.969 106.182 202.662 104.744 201.696 102.847C200.741 100.937 200.264 98.5909 200.264 95.8068C200.264 93.0227 200.736 90.6364 201.679 88.6477C202.633 86.6591 203.94 85.1364 205.599 84.0795C207.258 83.0114 209.139 82.4773 211.241 82.4773C212.866 82.4773 214.179 82.75 215.179 83.2955C216.179 83.8295 216.957 84.4545 217.514 85.1705C218.082 85.8864 218.52 86.517 218.827 87.0625H219.202V82.8182H224.196V109.58C224.196 111.83 223.673 113.676 222.628 115.119C221.582 116.563 220.167 117.631 218.383 118.324C216.611 119.017 214.611 119.364 212.383 119.364ZM212.332 104.381C213.798 104.381 215.037 104.04 216.048 103.358C217.071 102.665 217.844 101.676 218.366 100.392C218.9 99.0966 219.167 97.5455 219.167 95.7386C219.167 93.9773 218.906 92.4261 218.383 91.0852C217.861 89.7443 217.094 88.6989 216.082 87.9489C215.071 87.1875 213.821 86.8068 212.332 86.8068C210.798 86.8068 209.52 87.2045 208.497 88C207.474 88.7841 206.702 89.8523 206.179 91.2045C205.667 92.5568 205.412 94.0682 205.412 95.7386C205.412 97.4545 205.673 98.9602 206.196 100.256C206.719 101.551 207.491 102.562 208.514 103.29C209.548 104.017 210.821 104.381 212.332 104.381ZM240.303 109V74.0909H245.57V104.466H261.389V109H240.303ZM265.477 109V74.0909H270.744V104.466H286.562V109H265.477ZM290.651 74.0909H297.043L308.157 101.227H308.566L319.679 74.0909H326.071V109H321.06V83.7386H320.736L310.441 108.949H306.282L295.986 83.7216H295.662V109H290.651V74.0909ZM335.781 74.0909V77.3636C335.781 78.3295 335.599 79.3466 335.235 80.4148C334.883 81.4716 334.383 82.4886 333.735 83.4659C333.087 84.4432 332.326 85.2841 331.451 85.9886L328.928 84.1818C329.599 83.2045 330.178 82.1648 330.667 81.0625C331.167 79.9602 331.417 78.7443 331.417 77.4148V74.0909H335.781ZM355.099 89.2102L350.48 90.0284C350.287 89.4375 349.98 88.875 349.559 88.3409C349.15 87.8068 348.594 87.3693 347.889 87.0284C347.184 86.6875 346.304 86.517 345.247 86.517C343.804 86.517 342.599 86.8409 341.633 87.4886C340.667 88.125 340.184 88.9489 340.184 89.9602C340.184 90.8352 340.508 91.5398 341.156 92.0739C341.804 92.608 342.849 93.0455 344.292 93.3864L348.451 94.3409C350.861 94.8977 352.656 95.7557 353.838 96.9148C355.02 98.0739 355.611 99.5795 355.611 101.432C355.611 103 355.156 104.398 354.247 105.625C353.349 106.841 352.094 107.795 350.48 108.489C348.878 109.182 347.02 109.528 344.906 109.528C341.974 109.528 339.582 108.903 337.73 107.653C335.878 106.392 334.741 104.602 334.321 102.284L339.247 101.534C339.554 102.818 340.184 103.79 341.139 104.449C342.094 105.097 343.338 105.42 344.872 105.42C346.542 105.42 347.878 105.074 348.878 104.381C349.878 103.676 350.378 102.818 350.378 101.807C350.378 100.989 350.071 100.301 349.457 99.7443C348.855 99.1875 347.929 98.767 346.679 98.483L342.247 97.5114C339.804 96.9545 337.997 96.0682 336.826 94.8523C335.667 93.6364 335.088 92.0966 335.088 90.233C335.088 88.6875 335.52 87.3352 336.383 86.1761C337.247 85.017 338.44 84.1136 339.963 83.4659C341.486 82.8068 343.23 82.4773 345.196 82.4773C348.025 82.4773 350.253 83.0909 351.878 84.3182C353.503 85.5341 354.576 87.1648 355.099 89.2102ZM370.486 109V74.0909H375.754V104.466H391.572V109H370.486ZM406.28 109.528C403.825 109.528 401.683 108.966 399.853 107.841C398.024 106.716 396.603 105.142 395.592 103.119C394.581 101.097 394.075 98.733 394.075 96.0284C394.075 93.3125 394.581 90.9375 395.592 88.9034C396.603 86.8693 398.024 85.2898 399.853 84.1648C401.683 83.0398 403.825 82.4773 406.28 82.4773C408.734 82.4773 410.876 83.0398 412.706 84.1648C414.535 85.2898 415.956 86.8693 416.967 88.9034C417.978 90.9375 418.484 93.3125 418.484 96.0284C418.484 98.733 417.978 101.097 416.967 103.119C415.956 105.142 414.535 106.716 412.706 107.841C410.876 108.966 408.734 109.528 406.28 109.528ZM406.297 105.25C407.888 105.25 409.206 104.83 410.251 103.989C411.297 103.148 412.069 102.028 412.569 100.631C413.081 99.233 413.336 97.6932 413.336 96.0114C413.336 94.3409 413.081 92.8068 412.569 91.4091C412.069 90 411.297 88.8693 410.251 88.017C409.206 87.1648 407.888 86.7386 406.297 86.7386C404.694 86.7386 403.365 87.1648 402.308 88.017C401.263 88.8693 400.484 90 399.973 91.4091C399.473 92.8068 399.223 94.3409 399.223 96.0114C399.223 97.6932 399.473 99.233 399.973 100.631C400.484 102.028 401.263 103.148 402.308 103.989C403.365 104.83 404.694 105.25 406.297 105.25ZM433.281 109.528C430.747 109.528 428.566 108.955 426.736 107.807C424.918 106.648 423.52 105.051 422.543 103.017C421.566 100.983 421.077 98.6534 421.077 96.0284C421.077 93.3693 421.577 91.0227 422.577 88.9886C423.577 86.9432 424.986 85.3466 426.804 84.1989C428.622 83.0511 430.764 82.4773 433.23 82.4773C435.219 82.4773 436.992 82.8466 438.548 83.5852C440.105 84.3125 441.361 85.3352 442.316 86.6534C443.281 87.9716 443.855 89.5114 444.037 91.2727H439.077C438.804 90.0455 438.179 88.9886 437.202 88.1023C436.236 87.2159 434.941 86.7727 433.316 86.7727C431.895 86.7727 430.651 87.1477 429.583 87.8977C428.526 88.6364 427.702 89.6932 427.111 91.0682C426.52 92.4318 426.225 94.0455 426.225 95.9091C426.225 97.8182 426.514 99.4659 427.094 100.852C427.673 102.239 428.492 103.312 429.548 104.074C430.617 104.835 431.872 105.216 433.316 105.216C434.281 105.216 435.156 105.04 435.941 104.688C436.736 104.324 437.401 103.807 437.935 103.136C438.48 102.466 438.861 101.659 439.077 100.716H444.037C443.855 102.409 443.304 103.92 442.384 105.25C441.463 106.58 440.23 107.625 438.685 108.386C437.151 109.148 435.35 109.528 433.281 109.528ZM455.187 109.58C453.528 109.58 452.028 109.273 450.687 108.659C449.346 108.034 448.283 107.131 447.499 105.949C446.726 104.767 446.34 103.318 446.34 101.602C446.34 100.125 446.624 98.9091 447.192 97.9545C447.761 97 448.528 96.2443 449.494 95.6875C450.459 95.1307 451.539 94.7102 452.732 94.4261C453.925 94.142 455.141 93.9261 456.38 93.7784C457.948 93.5966 459.221 93.4489 460.198 93.3352C461.175 93.2102 461.886 93.0114 462.329 92.7386C462.772 92.4659 462.994 92.0227 462.994 91.4091V91.2898C462.994 89.8011 462.573 88.6477 461.732 87.8295C460.903 87.0114 459.664 86.6023 458.016 86.6023C456.3 86.6023 454.948 86.983 453.959 87.7443C452.982 88.4943 452.306 89.3295 451.931 90.25L447.141 89.1591C447.709 87.5682 448.539 86.2841 449.63 85.3068C450.732 84.3182 451.999 83.6023 453.431 83.1591C454.863 82.7045 456.369 82.4773 457.948 82.4773C458.994 82.4773 460.101 82.6023 461.272 82.8523C462.454 83.0909 463.556 83.5341 464.579 84.1818C465.613 84.8295 466.459 85.7557 467.119 86.9602C467.778 88.1534 468.107 89.7045 468.107 91.6136V109H463.13V105.42H462.925C462.596 106.08 462.101 106.727 461.442 107.364C460.783 108 459.937 108.528 458.903 108.949C457.869 109.369 456.63 109.58 455.187 109.58ZM456.295 105.489C457.704 105.489 458.908 105.21 459.908 104.653C460.92 104.097 461.687 103.369 462.209 102.472C462.744 101.562 463.011 100.591 463.011 99.5568V96.1818C462.829 96.3636 462.476 96.5341 461.954 96.6932C461.442 96.8409 460.857 96.9716 460.198 97.0852C459.539 97.1875 458.897 97.2841 458.272 97.375C457.647 97.4545 457.124 97.5227 456.704 97.5795C455.715 97.7045 454.812 97.9148 453.994 98.2102C453.187 98.5057 452.539 98.9318 452.05 99.4886C451.573 100.034 451.334 100.761 451.334 101.67C451.334 102.932 451.8 103.886 452.732 104.534C453.664 105.17 454.851 105.489 456.295 105.489ZM478.072 74.0909V109H472.976V74.0909H478.072ZM488.105 74.0909V109H483.009V74.0909H488.105ZM496.263 118.818C495.502 118.818 494.809 118.756 494.184 118.631C493.559 118.517 493.093 118.392 492.786 118.256L494.013 114.08C494.945 114.33 495.775 114.438 496.502 114.403C497.229 114.369 497.871 114.097 498.428 113.585C498.996 113.074 499.496 112.239 499.928 111.08L500.559 109.341L490.979 82.8182H496.434L503.064 103.136H503.337L509.968 82.8182H515.439L504.65 112.494C504.15 113.858 503.513 115.011 502.741 115.955C501.968 116.909 501.047 117.625 499.979 118.102C498.911 118.58 497.672 118.818 496.263 118.818ZM545.678 98.142V82.8182H550.791V109H545.78V104.466H545.507C544.905 105.864 543.939 107.028 542.609 107.96C541.291 108.881 539.649 109.341 537.683 109.341C536.001 109.341 534.513 108.972 533.217 108.233C531.933 107.483 530.922 106.375 530.183 104.909C529.456 103.443 529.092 101.631 529.092 99.4716V82.8182H534.189V98.858C534.189 100.642 534.683 102.062 535.672 103.119C536.661 104.176 537.945 104.705 539.524 104.705C540.479 104.705 541.428 104.466 542.371 103.989C543.325 103.511 544.115 102.79 544.74 101.824C545.376 100.858 545.689 99.6307 545.678 98.142ZM575.339 89.2102L570.719 90.0284C570.526 89.4375 570.219 88.875 569.799 88.3409C569.39 87.8068 568.833 87.3693 568.128 87.0284C567.424 86.6875 566.543 86.517 565.486 86.517C564.043 86.517 562.839 86.8409 561.873 87.4886C560.907 88.125 560.424 88.9489 560.424 89.9602C560.424 90.8352 560.748 91.5398 561.395 92.0739C562.043 92.608 563.089 93.0455 564.532 93.3864L568.691 94.3409C571.1 94.8977 572.895 95.7557 574.077 96.9148C575.259 98.0739 575.85 99.5795 575.85 101.432C575.85 103 575.395 104.398 574.486 105.625C573.589 106.841 572.333 107.795 570.719 108.489C569.117 109.182 567.259 109.528 565.145 109.528C562.214 109.528 559.822 108.903 557.969 107.653C556.117 106.392 554.981 104.602 554.56 102.284L559.486 101.534C559.793 102.818 560.424 103.79 561.378 104.449C562.333 105.097 563.577 105.42 565.111 105.42C566.782 105.42 568.117 105.074 569.117 104.381C570.117 103.676 570.617 102.818 570.617 101.807C570.617 100.989 570.31 100.301 569.697 99.7443C569.094 99.1875 568.168 98.767 566.918 98.483L562.486 97.5114C560.043 96.9545 558.236 96.0682 557.066 94.8523C555.907 93.6364 555.327 92.0966 555.327 90.233C555.327 88.6875 555.759 87.3352 556.623 86.1761C557.486 85.017 558.679 84.1136 560.202 83.4659C561.725 82.8068 563.469 82.4773 565.435 82.4773C568.265 82.4773 570.492 83.0909 572.117 84.3182C573.742 85.5341 574.816 87.1648 575.339 89.2102ZM579.534 109V82.8182H584.63V109H579.534ZM582.107 78.7784C581.221 78.7784 580.46 78.483 579.823 77.892C579.198 77.2898 578.886 76.5739 578.886 75.7443C578.886 74.9034 579.198 74.1875 579.823 73.5966C580.46 72.9943 581.221 72.6932 582.107 72.6932C582.994 72.6932 583.75 72.9943 584.375 73.5966C585.011 74.1875 585.329 74.9034 585.329 75.7443C585.329 76.5739 585.011 77.2898 584.375 77.892C583.75 78.483 582.994 78.7784 582.107 78.7784ZM594.663 93.4545V109H589.567V82.8182H594.459V87.0795H594.783C595.385 85.6932 596.328 84.5795 597.612 83.7386C598.908 82.8977 600.538 82.4773 602.504 82.4773C604.288 82.4773 605.851 82.8523 607.192 83.6023C608.533 84.3409 609.572 85.4432 610.311 86.9091C611.05 88.375 611.419 90.1875 611.419 92.3466V109H606.322V92.9602C606.322 91.0625 605.828 89.5795 604.839 88.5114C603.851 87.4318 602.493 86.892 600.766 86.892C599.584 86.892 598.533 87.1477 597.612 87.6591C596.703 88.1705 595.982 88.9205 595.447 89.9091C594.925 90.8864 594.663 92.0682 594.663 93.4545ZM627.312 119.364C625.232 119.364 623.442 119.091 621.942 118.545C620.454 118 619.238 117.278 618.295 116.381C617.351 115.483 616.647 114.5 616.181 113.432L620.562 111.625C620.868 112.125 621.277 112.653 621.789 113.21C622.312 113.778 623.016 114.261 623.902 114.659C624.8 115.057 625.954 115.256 627.363 115.256C629.295 115.256 630.891 114.784 632.152 113.841C633.414 112.909 634.045 111.42 634.045 109.375V104.227H633.721C633.414 104.784 632.971 105.403 632.391 106.085C631.823 106.767 631.039 107.358 630.039 107.858C629.039 108.358 627.738 108.608 626.135 108.608C624.067 108.608 622.204 108.125 620.545 107.159C618.897 106.182 617.59 104.744 616.624 102.847C615.67 100.937 615.192 98.5909 615.192 95.8068C615.192 93.0227 615.664 90.6364 616.607 88.6477C617.562 86.6591 618.868 85.1364 620.527 84.0795C622.187 83.0114 624.067 82.4773 626.17 82.4773C627.795 82.4773 629.107 82.75 630.107 83.2955C631.107 83.8295 631.885 84.4545 632.442 85.1705C633.01 85.8864 633.448 86.517 633.755 87.0625H634.13V82.8182H639.124V109.58C639.124 111.83 638.601 113.676 637.556 115.119C636.51 116.563 635.096 117.631 633.312 118.324C631.539 119.017 629.539 119.364 627.312 119.364ZM627.26 104.381C628.726 104.381 629.965 104.04 630.976 103.358C631.999 102.665 632.772 101.676 633.295 100.392C633.829 99.0966 634.096 97.5455 634.096 95.7386C634.096 93.9773 633.834 92.4261 633.312 91.0852C632.789 89.7443 632.022 88.6989 631.01 87.9489C629.999 87.1875 628.749 86.8068 627.26 86.8068C625.726 86.8068 624.448 87.2045 623.425 88C622.402 88.7841 621.63 89.8523 621.107 91.2045C620.596 92.5568 620.34 94.0682 620.34 95.7386C620.34 97.4545 620.601 98.9602 621.124 100.256C621.647 101.551 622.42 102.562 623.442 103.29C624.476 104.017 625.749 104.381 627.26 104.381ZM86.1591 149.545C86.1591 153.273 85.4773 156.477 84.1136 159.159C82.75 161.83 80.8807 163.886 78.5057 165.33C76.142 166.761 73.4545 167.477 70.4432 167.477C67.4205 167.477 64.7216 166.761 62.3466 165.33C59.983 163.886 58.1193 161.824 56.7557 159.142C55.392 156.46 54.7102 153.261 54.7102 149.545C54.7102 145.818 55.392 142.619 56.7557 139.949C58.1193 137.267 59.983 135.21 62.3466 133.778C64.7216 132.335 67.4205 131.614 70.4432 131.614C73.4545 131.614 76.142 132.335 78.5057 133.778C80.8807 135.21 82.75 137.267 84.1136 139.949C85.4773 142.619 86.1591 145.818 86.1591 149.545ZM80.9432 149.545C80.9432 146.705 80.483 144.312 79.5625 142.369C78.6534 140.415 77.4034 138.938 75.8125 137.938C74.233 136.926 72.4432 136.42 70.4432 136.42C68.4318 136.42 66.6364 136.926 65.0568 137.938C63.4773 138.938 62.2273 140.415 61.3068 142.369C60.3977 144.312 59.9432 146.705 59.9432 149.545C59.9432 152.386 60.3977 154.784 61.3068 156.739C62.2273 158.682 63.4773 160.159 65.0568 161.17C66.6364 162.17 68.4318 162.67 70.4432 162.67C72.4432 162.67 74.233 162.17 75.8125 161.17C77.4034 160.159 78.6534 158.682 79.5625 156.739C80.483 154.784 80.9432 152.386 80.9432 149.545ZM95.4934 132.091V167H90.3968V132.091H95.4934ZM105.526 132.091V167H100.43V132.091H105.526ZM118.082 167.58C116.423 167.58 114.923 167.273 113.582 166.659C112.241 166.034 111.179 165.131 110.395 163.949C109.622 162.767 109.236 161.318 109.236 159.602C109.236 158.125 109.52 156.909 110.088 155.955C110.656 155 111.423 154.244 112.389 153.688C113.355 153.131 114.435 152.71 115.628 152.426C116.821 152.142 118.037 151.926 119.276 151.778C120.844 151.597 122.116 151.449 123.094 151.335C124.071 151.21 124.781 151.011 125.224 150.739C125.668 150.466 125.889 150.023 125.889 149.409V149.29C125.889 147.801 125.469 146.648 124.628 145.83C123.798 145.011 122.56 144.602 120.912 144.602C119.196 144.602 117.844 144.983 116.855 145.744C115.878 146.494 115.202 147.33 114.827 148.25L110.037 147.159C110.605 145.568 111.435 144.284 112.526 143.307C113.628 142.318 114.895 141.602 116.327 141.159C117.758 140.705 119.264 140.477 120.844 140.477C121.889 140.477 122.997 140.602 124.168 140.852C125.349 141.091 126.452 141.534 127.474 142.182C128.508 142.83 129.355 143.756 130.014 144.96C130.673 146.153 131.003 147.705 131.003 149.614V167H126.026V163.42H125.821C125.491 164.08 124.997 164.727 124.338 165.364C123.679 166 122.832 166.528 121.798 166.949C120.764 167.369 119.526 167.58 118.082 167.58ZM119.19 163.489C120.599 163.489 121.804 163.21 122.804 162.653C123.815 162.097 124.582 161.369 125.105 160.472C125.639 159.562 125.906 158.591 125.906 157.557V154.182C125.724 154.364 125.372 154.534 124.849 154.693C124.338 154.841 123.753 154.972 123.094 155.085C122.435 155.187 121.793 155.284 121.168 155.375C120.543 155.455 120.02 155.523 119.599 155.58C118.611 155.705 117.707 155.915 116.889 156.21C116.082 156.506 115.435 156.932 114.946 157.489C114.469 158.034 114.23 158.761 114.23 159.67C114.23 160.932 114.696 161.886 115.628 162.534C116.56 163.17 117.747 163.489 119.19 163.489ZM135.871 167V140.818H140.763V145.08H141.087C141.633 143.636 142.525 142.511 143.763 141.705C145.002 140.886 146.485 140.477 148.212 140.477C149.962 140.477 151.428 140.886 152.61 141.705C153.803 142.523 154.684 143.648 155.252 145.08H155.525C156.15 143.682 157.144 142.568 158.507 141.739C159.871 140.898 161.496 140.477 163.382 140.477C165.757 140.477 167.695 141.222 169.195 142.71C170.706 144.199 171.462 146.443 171.462 149.443V167H166.365V149.92C166.365 148.148 165.883 146.864 164.917 146.068C163.951 145.273 162.797 144.875 161.456 144.875C159.797 144.875 158.507 145.386 157.587 146.409C156.667 147.42 156.206 148.722 156.206 150.312V167H151.127V149.597C151.127 148.176 150.684 147.034 149.797 146.17C148.911 145.307 147.758 144.875 146.337 144.875C145.371 144.875 144.479 145.131 143.661 145.642C142.854 146.142 142.201 146.841 141.701 147.739C141.212 148.636 140.968 149.676 140.968 150.858V167H135.871ZM183.992 167.58C182.333 167.58 180.833 167.273 179.492 166.659C178.151 166.034 177.089 165.131 176.305 163.949C175.532 162.767 175.146 161.318 175.146 159.602C175.146 158.125 175.43 156.909 175.998 155.955C176.566 155 177.333 154.244 178.299 153.688C179.265 153.131 180.345 152.71 181.538 152.426C182.731 152.142 183.947 151.926 185.186 151.778C186.754 151.597 188.026 151.449 189.004 151.335C189.981 151.21 190.691 151.011 191.134 150.739C191.578 150.466 191.799 150.023 191.799 149.409V149.29C191.799 147.801 191.379 146.648 190.538 145.83C189.708 145.011 188.47 144.602 186.822 144.602C185.106 144.602 183.754 144.983 182.765 145.744C181.788 146.494 181.112 147.33 180.737 148.25L175.947 147.159C176.515 145.568 177.345 144.284 178.436 143.307C179.538 142.318 180.805 141.602 182.237 141.159C183.668 140.705 185.174 140.477 186.754 140.477C187.799 140.477 188.907 140.602 190.078 140.852C191.259 141.091 192.362 141.534 193.384 142.182C194.418 142.83 195.265 143.756 195.924 144.96C196.583 146.153 196.913 147.705 196.913 149.614V167H191.936V163.42H191.731C191.401 164.08 190.907 164.727 190.248 165.364C189.589 166 188.742 166.528 187.708 166.949C186.674 167.369 185.436 167.58 183.992 167.58ZM185.1 163.489C186.509 163.489 187.714 163.21 188.714 162.653C189.725 162.097 190.492 161.369 191.015 160.472C191.549 159.562 191.816 158.591 191.816 157.557V154.182C191.634 154.364 191.282 154.534 190.759 154.693C190.248 154.841 189.663 154.972 189.004 155.085C188.345 155.187 187.703 155.284 187.078 155.375C186.453 155.455 185.93 155.523 185.509 155.58C184.521 155.705 183.617 155.915 182.799 156.21C181.992 156.506 181.345 156.932 180.856 157.489C180.379 158.034 180.14 158.761 180.14 159.67C180.14 160.932 180.606 161.886 181.538 162.534C182.47 163.17 183.657 163.489 185.1 163.489ZM220.184 167.58C218.524 167.58 217.024 167.273 215.684 166.659C214.343 166.034 213.28 165.131 212.496 163.949C211.723 162.767 211.337 161.318 211.337 159.602C211.337 158.125 211.621 156.909 212.189 155.955C212.757 155 213.524 154.244 214.49 153.688C215.456 153.131 216.536 152.71 217.729 152.426C218.922 152.142 220.138 151.926 221.377 151.778C222.945 151.597 224.218 151.449 225.195 151.335C226.172 151.21 226.882 151.011 227.326 150.739C227.769 150.466 227.99 150.023 227.99 149.409V149.29C227.99 147.801 227.57 146.648 226.729 145.83C225.899 145.011 224.661 144.602 223.013 144.602C221.297 144.602 219.945 144.983 218.956 145.744C217.979 146.494 217.303 147.33 216.928 148.25L212.138 147.159C212.706 145.568 213.536 144.284 214.627 143.307C215.729 142.318 216.996 141.602 218.428 141.159C219.86 140.705 221.365 140.477 222.945 140.477C223.99 140.477 225.098 140.602 226.269 140.852C227.451 141.091 228.553 141.534 229.576 142.182C230.61 142.83 231.456 143.756 232.115 144.96C232.774 146.153 233.104 147.705 233.104 149.614V167H228.127V163.42H227.922C227.593 164.08 227.098 164.727 226.439 165.364C225.78 166 224.934 166.528 223.899 166.949C222.865 167.369 221.627 167.58 220.184 167.58ZM221.292 163.489C222.701 163.489 223.905 163.21 224.905 162.653C225.917 162.097 226.684 161.369 227.206 160.472C227.74 159.562 228.007 158.591 228.007 157.557V154.182C227.826 154.364 227.473 154.534 226.951 154.693C226.439 154.841 225.854 154.972 225.195 155.085C224.536 155.187 223.894 155.284 223.269 155.375C222.644 155.455 222.121 155.523 221.701 155.58C220.712 155.705 219.809 155.915 218.99 156.21C218.184 156.506 217.536 156.932 217.047 157.489C216.57 158.034 216.331 158.761 216.331 159.67C216.331 160.932 216.797 161.886 217.729 162.534C218.661 163.17 219.848 163.489 221.292 163.489ZM243.069 151.455V167H237.972V140.818H242.864V145.08H243.188C243.791 143.693 244.734 142.58 246.018 141.739C247.313 140.898 248.944 140.477 250.91 140.477C252.694 140.477 254.256 140.852 255.597 141.602C256.938 142.341 257.978 143.443 258.717 144.909C259.455 146.375 259.825 148.187 259.825 150.347V167H254.728V150.96C254.728 149.062 254.234 147.58 253.245 146.511C252.256 145.432 250.899 144.892 249.171 144.892C247.989 144.892 246.938 145.148 246.018 145.659C245.109 146.17 244.387 146.92 243.853 147.909C243.33 148.886 243.069 150.068 243.069 151.455ZM274.541 167.511C272.427 167.511 270.541 166.972 268.882 165.892C267.234 164.801 265.939 163.25 264.996 161.239C264.064 159.216 263.598 156.79 263.598 153.96C263.598 151.131 264.069 148.71 265.013 146.699C265.967 144.687 267.274 143.148 268.933 142.08C270.592 141.011 272.473 140.477 274.575 140.477C276.2 140.477 277.507 140.75 278.496 141.295C279.496 141.83 280.268 142.455 280.814 143.17C281.371 143.886 281.802 144.517 282.109 145.062H282.416V132.091H287.513V167H282.535V162.926H282.109C281.802 163.483 281.359 164.119 280.78 164.835C280.211 165.551 279.427 166.176 278.427 166.71C277.427 167.244 276.132 167.511 274.541 167.511ZM275.666 163.165C277.132 163.165 278.371 162.778 279.382 162.006C280.405 161.222 281.177 160.136 281.7 158.75C282.234 157.364 282.501 155.75 282.501 153.909C282.501 152.091 282.24 150.5 281.717 149.136C281.194 147.773 280.427 146.71 279.416 145.949C278.405 145.187 277.155 144.807 275.666 144.807C274.132 144.807 272.854 145.205 271.831 146C270.808 146.795 270.035 147.881 269.513 149.256C269.001 150.631 268.746 152.182 268.746 153.909C268.746 155.659 269.007 157.233 269.53 158.631C270.052 160.028 270.825 161.136 271.848 161.955C272.882 162.761 274.155 163.165 275.666 163.165ZM307.11 132.091L316.826 160.523H317.218L326.934 132.091H332.627L320.065 167H313.979L301.417 132.091H307.11ZM343.998 167.528C341.419 167.528 339.197 166.977 337.334 165.875C335.481 164.761 334.049 163.199 333.038 161.188C332.038 159.165 331.538 156.795 331.538 154.08C331.538 151.398 332.038 149.034 333.038 146.989C334.049 144.943 335.459 143.347 337.265 142.199C339.084 141.051 341.209 140.477 343.64 140.477C345.118 140.477 346.549 140.722 347.936 141.21C349.322 141.699 350.567 142.466 351.669 143.511C352.771 144.557 353.64 145.915 354.277 147.585C354.913 149.244 355.231 151.261 355.231 153.636V155.443H334.419V151.625H350.237C350.237 150.284 349.964 149.097 349.419 148.062C348.873 147.017 348.106 146.193 347.118 145.591C346.14 144.989 344.993 144.688 343.674 144.688C342.243 144.688 340.993 145.04 339.924 145.744C338.868 146.437 338.049 147.347 337.47 148.472C336.902 149.585 336.618 150.795 336.618 152.102V155.085C336.618 156.835 336.924 158.324 337.538 159.551C338.163 160.778 339.032 161.716 340.146 162.364C341.26 163 342.561 163.318 344.049 163.318C345.015 163.318 345.896 163.182 346.692 162.909C347.487 162.625 348.174 162.205 348.754 161.648C349.334 161.091 349.777 160.403 350.084 159.585L354.907 160.455C354.521 161.875 353.828 163.119 352.828 164.188C351.839 165.244 350.595 166.068 349.095 166.659C347.606 167.239 345.907 167.528 343.998 167.528ZM358.966 167V140.818H363.892V144.977H364.165C364.642 143.568 365.483 142.46 366.688 141.653C367.904 140.835 369.279 140.426 370.813 140.426C371.131 140.426 371.506 140.437 371.938 140.46C372.381 140.483 372.728 140.511 372.978 140.545V145.42C372.773 145.364 372.409 145.301 371.887 145.233C371.364 145.153 370.841 145.114 370.318 145.114C369.114 145.114 368.04 145.369 367.097 145.881C366.165 146.381 365.426 147.08 364.881 147.977C364.335 148.864 364.063 149.875 364.063 151.011V167H358.966ZM385.559 167.528C383.025 167.528 380.843 166.955 379.013 165.807C377.195 164.648 375.798 163.051 374.82 161.017C373.843 158.983 373.354 156.653 373.354 154.028C373.354 151.369 373.854 149.023 374.854 146.989C375.854 144.943 377.263 143.347 379.082 142.199C380.9 141.051 383.042 140.477 385.508 140.477C387.496 140.477 389.269 140.847 390.826 141.585C392.383 142.312 393.638 143.335 394.593 144.653C395.559 145.972 396.133 147.511 396.315 149.273H391.354C391.082 148.045 390.457 146.989 389.479 146.102C388.513 145.216 387.218 144.773 385.593 144.773C384.173 144.773 382.928 145.148 381.86 145.898C380.803 146.636 379.979 147.693 379.388 149.068C378.798 150.432 378.502 152.045 378.502 153.909C378.502 155.818 378.792 157.466 379.371 158.852C379.951 160.239 380.769 161.312 381.826 162.074C382.894 162.835 384.15 163.216 385.593 163.216C386.559 163.216 387.434 163.04 388.218 162.688C389.013 162.324 389.678 161.807 390.212 161.136C390.758 160.466 391.138 159.659 391.354 158.716H396.315C396.133 160.409 395.582 161.92 394.661 163.25C393.741 164.58 392.508 165.625 390.962 166.386C389.428 167.148 387.627 167.528 385.559 167.528ZM411.129 167.528C408.549 167.528 406.328 166.977 404.464 165.875C402.612 164.761 401.18 163.199 400.169 161.188C399.169 159.165 398.669 156.795 398.669 154.08C398.669 151.398 399.169 149.034 400.169 146.989C401.18 144.943 402.589 143.347 404.396 142.199C406.214 141.051 408.339 140.477 410.771 140.477C412.248 140.477 413.68 140.722 415.066 141.21C416.453 141.699 417.697 142.466 418.799 143.511C419.902 144.557 420.771 145.915 421.407 147.585C422.044 149.244 422.362 151.261 422.362 153.636V155.443H401.549V151.625H417.368C417.368 150.284 417.095 149.097 416.549 148.062C416.004 147.017 415.237 146.193 414.248 145.591C413.271 144.989 412.123 144.688 410.805 144.688C409.373 144.688 408.123 145.04 407.055 145.744C405.998 146.437 405.18 147.347 404.601 148.472C404.032 149.585 403.748 150.795 403.748 152.102V155.085C403.748 156.835 404.055 158.324 404.669 159.551C405.294 160.778 406.163 161.716 407.277 162.364C408.39 163 409.691 163.318 411.18 163.318C412.146 163.318 413.027 163.182 413.822 162.909C414.618 162.625 415.305 162.205 415.885 161.648C416.464 161.091 416.907 160.403 417.214 159.585L422.038 160.455C421.652 161.875 420.959 163.119 419.959 164.188C418.97 165.244 417.726 166.068 416.226 166.659C414.737 167.239 413.038 167.528 411.129 167.528ZM431.193 132.091V167H426.097V132.091H431.193ZM450.271 167H444.68L457.243 132.091H463.328L475.89 167H470.299L460.43 138.432H460.157L450.271 167ZM451.208 153.33H469.345V157.761H451.208V153.33ZM484.279 132.091V167H479.011V132.091H484.279ZM519.852 141.261C519.67 139.648 518.92 138.398 517.602 137.511C516.284 136.614 514.625 136.165 512.625 136.165C511.193 136.165 509.954 136.392 508.909 136.847C507.863 137.29 507.051 137.903 506.471 138.688C505.903 139.46 505.619 140.341 505.619 141.33C505.619 142.159 505.812 142.875 506.198 143.477C506.596 144.08 507.113 144.585 507.75 144.994C508.397 145.392 509.091 145.727 509.829 146C510.568 146.261 511.278 146.477 511.96 146.648L515.369 147.534C516.483 147.807 517.625 148.176 518.795 148.642C519.966 149.108 521.051 149.722 522.051 150.483C523.051 151.244 523.858 152.188 524.471 153.312C525.096 154.438 525.409 155.784 525.409 157.352C525.409 159.33 524.897 161.085 523.875 162.619C522.863 164.153 521.392 165.364 519.46 166.25C517.539 167.136 515.216 167.58 512.488 167.58C509.875 167.58 507.613 167.165 505.704 166.335C503.795 165.506 502.301 164.33 501.221 162.807C500.142 161.273 499.545 159.455 499.431 157.352H504.716C504.818 158.614 505.227 159.665 505.943 160.506C506.67 161.335 507.596 161.955 508.721 162.364C509.858 162.761 511.102 162.96 512.454 162.96C513.943 162.96 515.267 162.727 516.426 162.261C517.596 161.784 518.517 161.125 519.187 160.284C519.858 159.432 520.193 158.437 520.193 157.301C520.193 156.267 519.897 155.42 519.306 154.761C518.727 154.102 517.937 153.557 516.937 153.125C515.948 152.693 514.829 152.312 513.579 151.983L509.454 150.858C506.659 150.097 504.443 148.977 502.806 147.5C501.181 146.023 500.369 144.068 500.369 141.636C500.369 139.625 500.914 137.869 502.005 136.369C503.096 134.869 504.573 133.705 506.437 132.875C508.301 132.034 510.403 131.614 512.744 131.614C515.108 131.614 517.193 132.028 519 132.858C520.818 133.688 522.25 134.83 523.295 136.284C524.341 137.727 524.886 139.386 524.931 141.261H519.852ZM541.084 167H529.783V132.091H541.442C544.862 132.091 547.8 132.79 550.254 134.188C552.709 135.574 554.59 137.568 555.896 140.17C557.215 142.761 557.874 145.869 557.874 149.494C557.874 153.131 557.209 156.256 555.879 158.869C554.561 161.483 552.652 163.494 550.152 164.903C547.652 166.301 544.629 167 541.084 167ZM535.05 162.398H540.794C543.453 162.398 545.663 161.898 547.425 160.898C549.186 159.886 550.504 158.426 551.379 156.517C552.254 154.597 552.692 152.256 552.692 149.494C552.692 146.756 552.254 144.432 551.379 142.523C550.516 140.614 549.226 139.165 547.51 138.176C545.794 137.187 543.663 136.693 541.118 136.693H535.05V162.398ZM562.503 167V132.091H567.77V148.761H568.197L582.839 132.091H589.469L575.39 147.807L589.52 167H583.179L571.895 151.403L567.77 156.142V167H562.503Z" fill="black"/>
<path id="December 01, 2024" d="M60.1989 222H54.0774V203.091H60.3928C62.2455 203.091 63.8366 203.469 65.1662 204.227C66.4957 204.978 67.5144 206.058 68.2223 207.467C68.9363 208.871 69.2933 210.554 69.2933 212.518C69.2933 214.487 68.9332 216.18 68.2131 217.596C67.4991 219.012 66.465 220.101 65.1108 220.864C63.7566 221.621 62.1193 222 60.1989 222ZM56.9304 219.507H60.0419C61.4822 219.507 62.6795 219.236 63.6335 218.695C64.5876 218.147 65.3016 217.356 65.7756 216.322C66.2495 215.281 66.4865 214.013 66.4865 212.518C66.4865 211.034 66.2495 209.776 65.7756 208.741C65.3078 207.707 64.6091 206.923 63.6797 206.387C62.7502 205.852 61.5961 205.584 60.2173 205.584H56.9304V219.507ZM77.6917 222.286C76.2945 222.286 75.0911 221.988 74.0816 221.391C73.0783 220.787 72.3027 219.941 71.7549 218.852C71.2133 217.756 70.9424 216.473 70.9424 215.001C70.9424 213.549 71.2133 212.268 71.7549 211.161C72.3027 210.053 73.066 209.188 74.0447 208.566C75.0295 207.944 76.1806 207.634 77.4978 207.634C78.298 207.634 79.0736 207.766 79.8245 208.031C80.5755 208.295 81.2495 208.711 81.8465 209.277C82.4436 209.843 82.9145 210.579 83.2592 211.484C83.6039 212.382 83.7762 213.475 83.7762 214.761V215.74H72.5028V213.672H81.071C81.071 212.946 80.9232 212.302 80.6278 211.742C80.3323 211.176 79.9169 210.73 79.3813 210.403C78.852 210.077 78.2303 209.914 77.5163 209.914C76.7407 209.914 76.0636 210.105 75.485 210.487C74.9126 210.862 74.4694 211.354 74.1555 211.964C73.8477 212.567 73.6938 213.223 73.6938 213.93V215.546C73.6938 216.494 73.86 217.3 74.1924 217.965C74.531 218.63 75.0018 219.138 75.6051 219.489C76.2083 219.833 76.9131 220.006 77.7194 220.006C78.2426 220.006 78.7196 219.932 79.1505 219.784C79.5814 219.63 79.9538 219.402 80.2677 219.101C80.5816 218.799 80.8217 218.427 80.9879 217.984L83.6008 218.455C83.3915 219.224 83.016 219.898 82.4744 220.477C81.9389 221.049 81.2649 221.495 80.4524 221.815C79.646 222.129 78.7258 222.286 77.6917 222.286ZM91.773 222.286C90.4004 222.286 89.2185 221.975 88.2275 221.354C87.2427 220.726 86.4856 219.861 85.9562 218.759C85.4269 217.657 85.1622 216.396 85.1622 214.974C85.1622 213.533 85.433 212.262 85.9747 211.161C86.5164 210.053 87.2796 209.188 88.2645 208.566C89.2493 207.944 90.4096 207.634 91.7453 207.634C92.8225 207.634 93.7827 207.834 94.626 208.234C95.4692 208.628 96.1494 209.182 96.6664 209.896C97.1896 210.61 97.5005 211.444 97.599 212.398H94.9122C94.7645 211.733 94.4259 211.161 93.8966 210.68C93.3734 210.2 92.6717 209.96 91.7914 209.96C91.022 209.96 90.348 210.163 89.7694 210.57C89.197 210.97 88.7507 211.542 88.4307 212.287C88.1106 213.026 87.9505 213.9 87.9505 214.909C87.9505 215.943 88.1075 216.836 88.4214 217.587C88.7353 218.338 89.1785 218.919 89.751 219.332C90.3296 219.744 91.0097 219.95 91.7914 219.95C92.3146 219.95 92.7886 219.855 93.2133 219.664C93.6442 219.467 94.0043 219.187 94.2936 218.824C94.589 218.461 94.7952 218.024 94.9122 217.513H97.599C97.5005 218.43 97.202 219.249 96.7034 219.969C96.2048 220.689 95.537 221.255 94.6998 221.668C93.8689 222.08 92.8932 222.286 91.773 222.286ZM105.623 222.286C104.226 222.286 103.023 221.988 102.013 221.391C101.01 220.787 100.234 219.941 99.6866 218.852C99.145 217.756 98.8741 216.473 98.8741 215.001C98.8741 213.549 99.145 212.268 99.6866 211.161C100.234 210.053 100.998 209.188 101.976 208.566C102.961 207.944 104.112 207.634 105.43 207.634C106.23 207.634 107.005 207.766 107.756 208.031C108.507 208.295 109.181 208.711 109.778 209.277C110.375 209.843 110.846 210.579 111.191 211.484C111.536 212.382 111.708 213.475 111.708 214.761V215.74H100.435V213.672H109.003C109.003 212.946 108.855 212.302 108.56 211.742C108.264 211.176 107.849 210.73 107.313 210.403C106.784 210.077 106.162 209.914 105.448 209.914C104.672 209.914 103.995 210.105 103.417 210.487C102.844 210.862 102.401 211.354 102.087 211.964C101.779 212.567 101.626 213.223 101.626 213.93V215.546C101.626 216.494 101.792 217.3 102.124 217.965C102.463 218.63 102.934 219.138 103.537 219.489C104.14 219.833 104.845 220.006 105.651 220.006C106.174 220.006 106.651 219.932 107.082 219.784C107.513 219.63 107.886 219.402 108.199 219.101C108.513 218.799 108.753 218.427 108.92 217.984L111.533 218.455C111.323 219.224 110.948 219.898 110.406 220.477C109.871 221.049 109.197 221.495 108.384 221.815C107.578 222.129 106.658 222.286 105.623 222.286ZM113.731 222V207.818H116.381V210.126H116.556C116.852 209.345 117.335 208.735 118.006 208.298C118.677 207.855 119.48 207.634 120.416 207.634C121.364 207.634 122.158 207.855 122.798 208.298C123.444 208.741 123.921 209.351 124.229 210.126H124.377C124.715 209.369 125.254 208.766 125.992 208.317C126.731 207.861 127.611 207.634 128.633 207.634C129.919 207.634 130.969 208.037 131.781 208.843C132.6 209.649 133.009 210.865 133.009 212.49V222H130.249V212.749C130.249 211.788 129.987 211.093 129.464 210.662C128.941 210.231 128.316 210.016 127.59 210.016C126.691 210.016 125.992 210.293 125.494 210.847C124.995 211.394 124.746 212.099 124.746 212.961V222H121.994V212.573C121.994 211.804 121.754 211.185 121.274 210.717C120.794 210.25 120.169 210.016 119.4 210.016C118.877 210.016 118.394 210.154 117.95 210.431C117.513 210.702 117.159 211.08 116.889 211.567C116.624 212.053 116.492 212.616 116.492 213.256V222H113.731ZM135.891 222V203.091H138.652V210.117H138.818C138.978 209.822 139.209 209.48 139.51 209.092C139.812 208.705 140.231 208.366 140.766 208.077C141.302 207.781 142.009 207.634 142.89 207.634C144.035 207.634 145.056 207.923 145.955 208.501C146.854 209.08 147.558 209.914 148.069 211.004C148.586 212.093 148.845 213.404 148.845 214.937C148.845 216.469 148.589 217.784 148.079 218.879C147.568 219.969 146.866 220.809 145.973 221.4C145.081 221.985 144.062 222.277 142.917 222.277C142.056 222.277 141.351 222.132 140.803 221.843C140.261 221.554 139.837 221.215 139.529 220.827C139.221 220.44 138.984 220.095 138.818 219.793H138.587V222H135.891ZM138.596 214.909C138.596 215.906 138.741 216.78 139.03 217.531C139.32 218.282 139.738 218.87 140.286 219.295C140.834 219.713 141.505 219.923 142.299 219.923C143.124 219.923 143.813 219.704 144.367 219.267C144.921 218.824 145.339 218.224 145.623 217.467C145.912 216.71 146.057 215.857 146.057 214.909C146.057 213.973 145.915 213.133 145.632 212.388C145.355 211.644 144.936 211.056 144.376 210.625C143.822 210.194 143.13 209.979 142.299 209.979C141.499 209.979 140.821 210.185 140.268 210.597C139.72 211.01 139.304 211.585 139.021 212.324C138.738 213.062 138.596 213.924 138.596 214.909ZM157.017 222.286C155.62 222.286 154.416 221.988 153.407 221.391C152.404 220.787 151.628 219.941 151.08 218.852C150.539 217.756 150.268 216.473 150.268 215.001C150.268 213.549 150.539 212.268 151.08 211.161C151.628 210.053 152.391 209.188 153.37 208.566C154.355 207.944 155.506 207.634 156.823 207.634C157.623 207.634 158.399 207.766 159.15 208.031C159.901 208.295 160.575 208.711 161.172 209.277C161.769 209.843 162.24 210.579 162.585 211.484C162.929 212.382 163.102 213.475 163.102 214.761V215.74H151.828V213.672H160.396C160.396 212.946 160.249 212.302 159.953 211.742C159.658 211.176 159.242 210.73 158.707 210.403C158.177 210.077 157.556 209.914 156.842 209.914C156.066 209.914 155.389 210.105 154.81 210.487C154.238 210.862 153.795 211.354 153.481 211.964C153.173 212.567 153.019 213.223 153.019 213.93V215.546C153.019 216.494 153.185 217.3 153.518 217.965C153.856 218.63 154.327 219.138 154.93 219.489C155.534 219.833 156.238 220.006 157.045 220.006C157.568 220.006 158.045 219.932 158.476 219.784C158.907 219.63 159.279 219.402 159.593 219.101C159.907 218.799 160.147 218.427 160.313 217.984L162.926 218.455C162.717 219.224 162.341 219.898 161.8 220.477C161.264 221.049 160.59 221.495 159.778 221.815C158.971 222.129 158.051 222.286 157.017 222.286ZM165.125 222V207.818H167.793V210.071H167.941C168.199 209.308 168.655 208.708 169.307 208.271C169.966 207.827 170.711 207.606 171.542 207.606C171.714 207.606 171.917 207.612 172.151 207.624C172.391 207.637 172.579 207.652 172.714 207.67V210.311C172.603 210.28 172.406 210.246 172.123 210.21C171.84 210.166 171.557 210.145 171.274 210.145C170.621 210.145 170.04 210.283 169.529 210.56C169.024 210.831 168.624 211.21 168.328 211.696C168.033 212.176 167.885 212.724 167.885 213.339V222H165.125ZM186.45 222.314C184.991 222.308 183.745 221.923 182.711 221.16C181.677 220.397 180.886 219.286 180.338 217.827C179.79 216.368 179.516 214.611 179.516 212.555C179.516 210.505 179.79 208.754 180.338 207.301C180.892 205.848 181.686 204.741 182.72 203.977C183.76 203.214 185.004 202.832 186.45 202.832C187.897 202.832 189.137 203.217 190.171 203.987C191.205 204.75 191.996 205.858 192.544 207.31C193.098 208.757 193.375 210.505 193.375 212.555C193.375 214.617 193.101 216.377 192.553 217.836C192.005 219.289 191.214 220.4 190.18 221.169C189.146 221.932 187.903 222.314 186.45 222.314ZM186.45 219.849C187.73 219.849 188.731 219.224 189.451 217.974C190.177 216.725 190.54 214.918 190.54 212.555C190.54 210.985 190.374 209.659 190.042 208.575C189.716 207.486 189.245 206.661 188.629 206.101C188.02 205.535 187.293 205.251 186.45 205.251C185.176 205.251 184.176 205.879 183.449 207.135C182.723 208.391 182.357 210.197 182.351 212.555C182.351 214.13 182.514 215.463 182.84 216.553C183.172 217.636 183.643 218.458 184.253 219.018C184.862 219.572 185.595 219.849 186.45 219.849ZM202.784 203.091V222H199.922V205.953H199.811L195.287 208.908V206.175L200.005 203.091H202.784ZM209.396 219.415L209.258 220.421C209.165 221.16 209.008 221.929 208.787 222.729C208.571 223.536 208.347 224.284 208.113 224.973C207.885 225.662 207.697 226.21 207.55 226.616H205.592C205.672 226.235 205.783 225.718 205.925 225.065C206.066 224.419 206.205 223.696 206.34 222.896C206.475 222.095 206.577 221.28 206.645 220.449L206.737 219.415H209.396ZM217.754 222V219.932L224.152 213.303C224.836 212.582 225.399 211.951 225.842 211.41C226.291 210.862 226.627 210.342 226.848 209.849C227.07 209.357 227.181 208.834 227.181 208.28C227.181 207.652 227.033 207.11 226.738 206.655C226.442 206.193 226.039 205.839 225.528 205.593C225.017 205.341 224.442 205.214 223.802 205.214C223.124 205.214 222.534 205.353 222.029 205.63C221.524 205.907 221.136 206.298 220.865 206.803C220.595 207.307 220.459 207.898 220.459 208.575H217.736C217.736 207.424 218 206.418 218.53 205.556C219.059 204.694 219.785 204.027 220.709 203.553C221.632 203.072 222.681 202.832 223.857 202.832C225.045 202.832 226.091 203.069 226.996 203.543C227.907 204.011 228.618 204.651 229.129 205.464C229.64 206.27 229.895 207.181 229.895 208.197C229.895 208.898 229.763 209.585 229.498 210.256C229.24 210.927 228.787 211.674 228.141 212.499C227.495 213.318 226.596 214.312 225.445 215.482L221.687 219.415V219.553H230.2V222H217.754ZM239.242 222.314C237.784 222.308 236.537 221.923 235.503 221.16C234.469 220.397 233.678 219.286 233.13 217.827C232.582 216.368 232.308 214.611 232.308 212.555C232.308 210.505 232.582 208.754 233.13 207.301C233.684 205.848 234.478 204.741 235.512 203.977C236.553 203.214 237.796 202.832 239.242 202.832C240.689 202.832 241.929 203.217 242.963 203.987C243.997 204.75 244.788 205.858 245.336 207.31C245.89 208.757 246.167 210.505 246.167 212.555C246.167 214.617 245.893 216.377 245.345 217.836C244.798 219.289 244.007 220.4 242.972 221.169C241.938 221.932 240.695 222.314 239.242 222.314ZM239.242 219.849C240.523 219.849 241.523 219.224 242.243 217.974C242.969 216.725 243.333 214.918 243.333 212.555C243.333 210.985 243.166 209.659 242.834 208.575C242.508 207.486 242.037 206.661 241.421 206.101C240.812 205.535 240.086 205.251 239.242 205.251C237.968 205.251 236.968 205.879 236.242 207.135C235.515 208.391 235.149 210.197 235.143 212.555C235.143 214.13 235.306 215.463 235.632 216.553C235.965 217.636 236.436 218.458 237.045 219.018C237.654 219.572 238.387 219.849 239.242 219.849ZM248.402 222V219.932L254.801 213.303C255.484 212.582 256.047 211.951 256.491 211.41C256.94 210.862 257.275 210.342 257.497 209.849C257.719 209.357 257.829 208.834 257.829 208.28C257.829 207.652 257.682 207.11 257.386 206.655C257.091 206.193 256.688 205.839 256.177 205.593C255.666 205.341 255.09 205.214 254.45 205.214C253.773 205.214 253.182 205.353 252.677 205.63C252.173 205.907 251.785 206.298 251.514 206.803C251.243 207.307 251.108 207.898 251.108 208.575H248.384C248.384 207.424 248.649 206.418 249.178 205.556C249.707 204.694 250.434 204.027 251.357 203.553C252.28 203.072 253.33 202.832 254.505 202.832C255.693 202.832 256.74 203.069 257.645 203.543C258.556 204.011 259.267 204.651 259.777 205.464C260.288 206.27 260.544 207.181 260.544 208.197C260.544 208.898 260.411 209.585 260.147 210.256C259.888 210.927 259.436 211.674 258.79 212.499C258.143 213.318 257.245 214.312 256.094 215.482L252.336 219.415V219.553H260.849V222H248.402ZM262.505 218.307V215.999L270.676 203.091H272.495V206.489H271.34L265.496 215.74V215.888H276.696V218.307H262.505ZM271.47 222V217.605L271.488 216.553V203.091H274.193V222H271.47Z" fill="black" fill-opacity="0.6"/>
<line id="Line 1" x1="-1.5" y1="331.5" x2="777.5" y2="331.5" stroke="black" stroke-opacity="0.35" stroke-linecap="square" stroke-linejoin="bevel" stroke-dasharray="10 10"/>
<g id="Frame 13">
<g id="Frame 15">
<rect x="572.5" y="357.5" width="60" height="60" rx="9.5" stroke="black" stroke-opacity="0.4"/>
<g id="Frame">
<g id="Group 4">
<path id="Vector" d="M612 389V395C612 395.53 611.789 396.039 611.414 396.414C611.039 396.789 610.53 397 610 397H596C595.47 397 594.961 396.789 594.586 396.414C594.211 396.039 594 395.53 594 395V381C594 380.47 594.211 379.961 594.586 379.586C594.961 379.211 595.47 379 596 379H602" stroke="black" stroke-opacity="0.6" stroke-width="2" stroke-linecap="round" stroke-linejoin="round"/>
<path id="Vector_2" d="M612 379L603 388" stroke="black" stroke-opacity="0.6" stroke-width="2" stroke-linecap="round" stroke-linejoin="round"/>
<path id="Vector_3" d="M606 379H612V385" stroke="black" stroke-opacity="0.6" stroke-width="2" stroke-linecap="round" stroke-linejoin="round"/>
</g>
</g>
</g>
<g id="Frame 14">
<rect x="663.5" y="357.5" width="60" height="60" rx="9.5" stroke="black" stroke-opacity="0.4"/>
<g id="Frame_2">
<g id="Group 3">
<path id="Vector_4" d="M681.875 379.75H705.125" stroke="black" stroke-opacity="0.6" stroke-width="2" stroke-linecap="round" stroke-linejoin="round"/>
<path id="Vector_5" d="M702.541 379.75V397.833C702.541 399.125 701.25 400.417 699.958 400.417H687.041C685.75 400.417 684.458 399.125 684.458 397.833V379.75" stroke="black" stroke-opacity="0.6" stroke-width="2" stroke-linecap="round" stroke-linejoin="round"/>
<path id="Vector_6" d="M688.333 379.75V377.167C688.333 375.875 689.625 374.583 690.916 374.583H696.083C697.375 374.583 698.666 375.875 698.666 377.167V379.75" stroke="black" stroke-opacity="0.6" stroke-width="2" stroke-linecap="round" stroke-linejoin="round"/>
<path id="Vector_7" d="M690.917 386.208V393.958" stroke="black" stroke-opacity="0.6" stroke-width="2" stroke-linecap="round" stroke-linejoin="round"/>
<path id="Vector_8" d="M696.083 386.208V393.958" stroke="black" stroke-opacity="0.6" stroke-width="2" stroke-linecap="round" stroke-linejoin="round"/>
</g>
</g>
</g>
<g id="Frame 16">
<rect x="481.5" y="358.5" width="60" height="60" rx="9.5" stroke="black" stroke-opacity="0.4"/>
<g id="Frame_3">
<rect width="31" height="31" transform="translate(496 373)" fill="white"/>
<path id="Vector_9" d="M510.887 375.964C510.943 375.85 511.031 375.754 511.139 375.686C511.247 375.619 511.372 375.583 511.5 375.583C511.628 375.583 511.753 375.619 511.861 375.686C511.97 375.754 512.057 375.85 512.114 375.964L515.097 382.008C515.294 382.406 515.584 382.75 515.943 383.011C516.302 383.272 516.719 383.442 517.158 383.506L523.83 384.483C523.957 384.501 524.076 384.555 524.173 384.637C524.271 384.719 524.344 384.827 524.383 384.949C524.423 385.07 524.427 385.2 524.397 385.324C524.366 385.448 524.302 385.561 524.21 385.651L519.384 390.35C519.066 390.66 518.828 391.043 518.691 391.465C518.553 391.888 518.52 392.337 518.595 392.775L519.734 399.415C519.757 399.541 519.743 399.671 519.695 399.79C519.647 399.909 519.566 400.012 519.463 400.088C519.359 400.163 519.236 400.208 519.108 400.217C518.98 400.225 518.852 400.198 518.739 400.138L512.774 397.002C512.381 396.795 511.943 396.688 511.499 396.688C511.055 396.688 510.618 396.795 510.225 397.002L504.262 400.138C504.148 400.198 504.021 400.225 503.893 400.216C503.765 400.207 503.642 400.162 503.539 400.087C503.435 400.011 503.355 399.908 503.307 399.789C503.259 399.671 503.245 399.541 503.267 399.415L504.405 392.777C504.48 392.338 504.448 391.889 504.31 391.466C504.173 391.043 503.934 390.66 503.616 390.35L498.79 385.652C498.698 385.563 498.632 385.45 498.601 385.325C498.57 385.201 498.575 385.07 498.614 384.948C498.654 384.826 498.727 384.718 498.825 384.635C498.923 384.553 499.043 384.5 499.17 384.482L505.841 383.506C506.281 383.442 506.698 383.273 507.057 383.012C507.417 382.751 507.707 382.406 507.904 382.008L510.887 375.964Z" stroke="black" stroke-opacity="0.6" stroke-width="2" stroke-linecap="round" stroke-linejoin="round"/>
</g>
</g>
</g>
</g>
<rect x="0.5" y="0.5" width="777" height="446" rx="19.5" stroke="black" stroke-opacity="0.35" stroke-linecap="square" stroke-dasharray="10 10"/>
</g>
<defs>
<filter id="filter0_d_12_39" x="-103" y="-93" width="984" height="653" filterUnits="userSpaceOnUse" color-interpolation-filters="sRGB">
<feFlood flood-opacity="0" result="BackgroundImageFix"/>
<feColorMatrix in="SourceAlpha" type="matrix" values="0 0 0 0 0 0 0 0 0 0 0 0 0 0 0 0 0 0 127 0" result="hardAlpha"/>
<feMorphology radius="12" operator="dilate" in="SourceAlpha" result="effect1_dropShadow_12_39"/>
<feOffset dy="10"/>
<feGaussianBlur stdDeviation="45.5"/>
<feComposite in2="hardAlpha" operator="out"/>
<feColorMatrix type="matrix" values="0 0 0 0 0 0 0 0 0 0 0 0 0 0 0 0 0 0 0.25 0"/>
<feBlend mode="normal" in2="BackgroundImageFix" result="effect1_dropShadow_12_39"/>
<feBlend mode="normal" in="SourceGraphic" in2="effect1_dropShadow_12_39" result="shape"/>
</filter>
<clipPath id="clip0_12_39">
<rect width="778" height="447" rx="20" fill="white"/>
</clipPath>
</defs>
</svg>
