<svg xmlns="http://www.w3.org/2000/svg" version="1.1" xmlns:xlink="http://www.w3.org/1999/xlink" viewBox="0 0 1422 800" style="overflow: hidden; display: block;" width="1422" height="800"><defs></defs><g id="two-0" transform="matrix(1 0 0 1 0 0)" opacity="1"></g><path d="M 409.22447415925825 438.60119785150476 Q 409.22447415925825 438.60119785150476 419.9696149909566 434.06573311988825 430.7147558226549 429.53026838827174 446.9448265604211 423.7475798463018 463.17489729818726 417.96489130433184 487.1626975092977 409.5229081110155 511.15049772040817 401.0809249176992 539.9899090052294 391.80010902490255 568.8293202900506 382.519293132106 599.8747323154254 375.33344463823573 630.9201443408001 368.14759614436554 661.2385150617301 362.2709032303193 691.5568857826603 356.39421031627296 716.2312317160205 352.12842320488494 740.9055776493807 347.862636093497 762.2359883212889 345.3286639311277 783.5663989931973 342.7946917687585 799.7911042728621 341.3704022140851 816.0158095525269 339.9461126594117 826.0329462077194 338.72932237845004 836.050082862912 337.51253209748836 841.2128672910463 336.4902614210136 846.3756517191807 335.46799074453884 847.3083608125803 335.498216832616 848.2410699059798 335.52844292069307 849.1394406491147 335.78100950040994 850.0378113922496 336.03357608012686 850.8496304353191 336.49380397000357 851.6614494783886 336.95403185988033 852.3395338604664 337.59517259333353 853.0176182425441 338.2363133267867 853.5225576674841 339.02110377426425 854.027497092424 339.8058942217418 854.3299444571242 340.68872232556305 854.6323918218243 341.5715504293842 854.714768871238 342.5011061786755 854.7971459206516 343.43066192796687 854.6546648967962 344.3529194989045 854.5121838729409 345.27517706984213 854.1531257796175 346.1365348090711 853.794067686294 346.99789254830006 853.2393009967568 347.7482883035457 852.6845343072197 348.49868405879124 851.9663020875302 349.09450479350136 851.2480698678406 349.6903255282115 850.4081158083532 350.0969421132903 849.5681617488657 350.5035586983691 848.6553040189826 350.697338558787 847.7424462890997 350.89111841920493 835.7290240903908 353.7385863889798 823.715601891682 356.58605435875467 808.4595588223074 359.38109205202585 793.2035157529326 362.17612974529703 771.3745388926052 367.83411944049874 749.5455620322776 373.4921091357005 719.7705953750676 380.8698552292147 689.9956287178575 388.2476013227289 672.0150971647855 392.75930377779184 654.0345656117136 397.27100623285486 643.3775713886907 400.68200972633406 632.7205771656678 404.09301321981326 628.0997452732811 407.4325009482595 623.4789133808944 410.7719886767057 622.5453764741688 410.98692254709283 621.6118395674433 411.20185641748003 620.6539926178957 411.1871273271963 619.6961456683482 411.17239823691256 618.7696587856904 410.92886224137726 617.8431719030326 410.68532624584196 617.0018925484156 410.2271376685581 616.1606131937987 409.76894909127424 615.45343656284 409.1227378738814 614.7462599318814 408.47652665648866 614.214287163599 407.67985062530397 613.6823143953168 406.8831745941192 613.3564637719978 405.9823365975067 613.030613148679 405.08149860089407 612.9298231238608 404.12885538554247 612.8290330990428 403.1762121701909 612.9591615937036 402.2271314045363 613.0892900883644 401.27805063888167 613.4427740282802 400.38769294161625 613.7962579681961 399.4973352443508 614.3525528501707 398.7174482466729 614.9088477321453 397.937561248995 615.635621671501 397.3134720198525 616.3623956108565 396.68938279070994 617.2174084720905 396.2573634254233 618.0724213333245 395.8253440601367 624.3258713602065 394.80689201504856 630.5793213870885 393.7884399699604 658.9333339032623 390.9722134134805 687.2873464194362 388.1559868570007 738.8693427023544 381.70425772324177 790.4513389852726 375.25252858948284 863.7338643197384 372.5434684980903 937.0163896542041 369.8344084066978 1015.1874577061321 368.73856703303113 1093.35852575806 367.64272565936443 1157.603800944682 367.2110287401564 1221.849076131304 366.77933182094836 1261.6057331443776 366.26373297250757 1301.3623901574513 365.7481341240667 1319.6988229639846 365.5463939489921 1338.035255770518 365.3446537739174 1339.0709602228485 365.50032468780114 1340.1066646751792 365.65599560168494 1341.0384423756423 366.13422929239084 1341.9702200761055 366.61246298309675 1342.7005136534976 367.3631882569665 1343.4308072308895 368.1139135308362 1343.8831547548784 369.0585292535234 1344.3355022788676 370.00314497621054 1344.4625428442837 371.0427496321954 1344.5895834097 372.0823542881803 1344.378015835809 373.1081009955524 1344.1664482619178 374.1338477029244 1343.6384237295542 375.03834051065087 1343.1103991971906 375.9428333183774 1342.321202014278 376.6313715907265 1341.5320048313654 377.31990986307557 1340.5642641512823 377.7204034611758 1339.5965234711994 378.1208970592761 1338.5515619986095 378.1914141976864 1337.5066005260196 378.2619313360967 1336.4938260029462 377.9950888518108 1335.4810514798726 377.7282463675249 1334.6065016662278 377.1519827390871 1333.7319518525828 376.57571911064923 1333.087192344714 375.75036929207573 1332.4424328368448 374.92501947350223 1332.0949701254258 373.93699780866893 1331.7475074140066 372.9489761438356 1331.7337209366442 371.90172876186284 1331.7199344592816 370.85448137989016 1332.0412676637948 369.8576553581171 1332.3626008683082 368.860829336344 1332.9854100833609 368.01879262238674 1333.6082192984138 367.1767559084294 1334.4672962347845 366.57766996851535 1335.3263731711552 365.97858402860123 1336.3317722468314 365.6851733187827 1337.3371713225076 365.39176260896414 1338.3836269888666 365.43474730801205 1339.4300826552253 365.47773200705996 1340.4080307277616 365.85261160563715 1341.3859788002978 366.22749120421435 1342.1930278576638 366.89501570939115 1343.0000769150295 367.562540214568 1343.5517287078785 368.45281963444313 1344.1033805007276 369.3430990543182 1344.3418769407267 370.3629208986197 1344.5803733807256 371.3827427429212 1344.4807438276498 372.42533139534396 1344.381114274574 373.4679200477667 1343.9537899689299 374.4241162011853 1343.5264656632858 375.3803123546039 1342.816187572677 376.15000201934424 1342.1059094820685 376.9196916840845 1341.1870439100771 377.4222881490698 1340.2681783380856 377.92488461405514 1339.236930752656 378.107765896729 1338.2056831672267 378.2906471794028 1338.2066541167392 378.29063439734796 1338.207625066252 378.2906216152931 1319.8796888892034 378.5770497670419 1301.551752712155 378.86347791879064 1261.7536401613777 379.4965104275815 1221.9555276106005 380.1295429363724 1157.762499354246 380.7219658409355 1093.5694710978917 381.31438874549866 1015.5670106557761 382.628241074823 937.5645502136607 383.9420934041474 864.9491707275828 386.9029008492044 792.3337912415049 389.8637082942614 740.6598674618388 396.75284395214834 688.9859436821727 403.64197961003526 656.2328021841311 407.2068489437032 623.4796606860896 410.77171827737124 622.5461452774188 410.98674550037424 621.612629868748 411.20177272337725 620.6547814510806 411.18713941786194 619.6969330334132 411.17250611234664 618.7704218017884 410.92906276671715 617.8439105701635 410.68561942108767 617.0025854008952 410.2275149740301 616.161260231627 409.7694105269725 615.4540189830827 409.1232700304737 614.7467777345383 408.47712953397496 614.2147253013129 407.68050670405034 613.6826728680874 406.88388387412573 613.3567321625983 405.9830784670796 613.0307914571091 405.0822730600336 612.9299061684736 404.12963992844766 612.8290208798381 403.17700679686175 612.9590544657718 402.22791302310304 613.0890880517055 401.2788192493444 613.4424829540844 400.3884262081368 613.7958778564632 399.49803316692925 614.3520947469567 398.7180905436627 614.9083116374502 397.9381479203961 615.6350231642491 397.3139860169802 616.3617346910481 396.6898241135643 617.2167043460706 396.2577192491518 618.0716740010931 395.82561438473925 616.3453008933873 397.36867694573533 614.6189277856813 398.9117395067314 621.5987832347748 394.8739782432972 628.5786386838685 390.83621697986297 639.6150435212855 387.4703967331875 650.6514483587025 384.10457648651203 668.6072463963715 379.3850213791477 686.5630444340404 374.6654662717833 716.1657667725076 367.0368163975226 745.7684891109749 359.4081665232619 767.9741560214966 353.25674509483895 790.1798229320182 347.10532366641604 804.6782718406985 343.93472532317145 819.1767207493789 340.76412697992686 832.7758006595066 338.11609307065476 846.3748805696342 335.4680591613827 847.307592680979 335.4981919783995 848.2403047923237 335.5283247954163 849.1387007876248 335.7808015367962 850.0370967829258 336.0332782781761 850.8489618447251 336.4934249838475 851.6608269065243 336.9535716895189 852.3389753992849 337.59464461132836 853.0171238920454 338.23571753313774 853.5221417935054 339.02045748274895 854.0271596949652 339.8051974323601 854.3296953409633 340.68799528703073 854.6322309869615 341.5707931417014 854.714700991538 342.50034064864 854.7971709961146 343.4298881555786 854.6547821987285 344.35215997000734 854.5123934013426 345.27443178443605 854.1534214455883 346.13582542516747 853.7944494898339 346.99721906589895 853.239757842646 347.74767029406144 852.6850661954579 348.49812152222387 851.9668935614329 349.0940140771767 851.2487209274079 349.6899066321296 850.4088075337786 350.0966072105811 849.5688941401494 350.50330778903265 848.6560557928167 350.6971789342545 847.7432174454841 350.8910500794764 842.553541289696 351.0397595824503 837.3638651339079 351.18846908542423 827.2540250606165 351.9051858087122 817.1441849873252 352.62190253200015 801.1182602808514 354.0684990293755 785.0923355743776 355.5150955267509 764.1100025806011 358.05756588746976 743.1276695868247 360.6000362481887 718.5992147649894 364.92173539287216 694.070759943154 369.2434345375556 664.010140031455 375.1797980945963 633.9495201197558 381.1161616516371 603.4973222064533 388.2973200256281 573.0451242931508 395.478478399619 544.4691315632535 404.8953809441841 515.8931388333563 414.3122834887492 492.07072543906276 423.0080503784025 468.24831204476925 431.70381726805584 452.5543658490943 437.709822840771 436.86041965341934 443.7158284134861 426.20398959278367 448.45437948997505 415.547559532148 453.192930566464 414.6285874822348 453.4652366931084 413.7096154323217 453.7375428197528 412.7521795763869 453.7820044537766 411.7947437204521 453.82646608780044 410.85449027542757 453.6404991169452 409.914236830403 453.45453214608995 409.0458133706911 453.0489449794394 408.1773899109792 452.6433578127888 407.4312692488611 452.04172319552504 406.685148586743 451.4400885782612 406.1046952901574 450.6773735426073 405.52424199357176 449.9146585069534 405.14319203538867 449.0351920866176 404.7621420772055 448.1557256662818 404.602642098898 447.2106224909355 404.4431421205905 446.2655193155893 404.514462268392 445.3097088261892 404.58578241619347 444.35389833678914 404.88377755976273 443.4429322838877 405.18177270333194 442.5319662309863 405.6891233509235 441.71879000437974 406.19647399851505 440.90561377777317 406.8836929066531 440.23748921795874 407.5709118147911 439.5693646581443 408.39805778824575 439.0851231959301 409.22520376170047 438.600881733716 409.22483896047936 438.6010397926104 Z" fill="hsl(205, 69%, 50%)"></path></svg>