<svg width="3157" height="729" viewBox="0 0 3157 729" fill="none" xmlns="http://www.w3.org/2000/svg">
<path d="M2.83122e-06 14.9999H322C406 14.9999 472.667 36.6666 522 80C572 122.667 597 184 597 264C597 344 572 405.667 522 449C472.667 492.333 406 514 322 514H207V714H2.83122e-06V14.9999ZM283 350C315 350 340 343.667 358 331C376 318.333 385 296 385 264C385 232.667 376 210.667 358 198C340 185.333 315 179 283 179H207V350H283ZM647.461 14.9999H854.461V540H1136.46V714H647.461V14.9999ZM1463.6 729C1390.27 729 1329.27 715.333 1280.6 688C1231.93 660.667 1195.6 623 1171.6 575C1148.27 527 1136.6 472 1136.6 410V14.9999H1343.6V408C1343.6 450.667 1353.6 483 1373.6 505C1394.27 527 1424.27 538 1463.6 538C1502.93 538 1532.6 527 1552.6 505C1573.27 483 1583.6 450.667 1583.6 408V14.9999H1790.6V410C1790.6 472 1778.6 527 1754.6 575C1731.27 623 1695.27 660.667 1646.6 688C1597.93 715.333 1536.93 729 1463.6 729ZM2018.23 189H1830.23V14.9999H2413.23V189H2225.23V714H2018.23V189ZM2780.85 729C2710.18 729 2645.85 713.667 2587.85 683C2530.52 652.333 2485.18 609.667 2451.85 555C2419.18 499.667 2402.85 436.333 2402.85 365C2402.85 293.667 2419.18 230.333 2451.85 175C2485.18 119.667 2530.52 76.6666 2587.85 46C2645.85 15.3333 2710.18 -4.62532e-05 2780.85 -4.62532e-05C2851.52 -4.62532e-05 2915.18 15.3333 2971.85 46C3029.18 76.6666 3074.18 119.667 3106.85 175C3140.18 230.333 3156.85 293.667 3156.85 365C3156.85 436.333 3140.18 499.667 3106.85 555C3074.18 609.667 3029.18 652.333 2971.85 683C2915.18 713.667 2851.52 729 2780.85 729ZM2780.85 535C2811.52 535 2839.18 528.333 2863.85 515C2889.18 501 2909.18 481.333 2923.85 456C2938.52 430 2945.85 399.667 2945.85 365C2945.85 313.667 2930.18 272.667 2898.85 242C2867.52 211.333 2828.18 196 2780.85 196C2732.85 196 2692.85 211.333 2660.85 242C2629.52 272.667 2613.85 313.667 2613.85 365C2613.85 399.667 2621.18 430 2635.85 456C2650.52 481.333 2670.52 501 2695.85 515C2721.18 528.333 2749.52 535 2780.85 535Z" fill="white"/>
</svg>
