<svg width="500" height="500" viewBox="0 0 500 500" fill="none" xmlns="http://www.w3.org/2000/svg">
<rect width="500" height="500" rx="136" fill="black"/>
<path d="M392.775 180.072C388.071 178.438 383.334 176.916 378.562 175.507C379.353 172.232 380.083 168.939 380.752 165.627C391.515 112.395 384.477 69.5091 360.458 55.3917C337.46 41.845 299.743 55.9624 261.695 89.7169C257.954 93.0475 254.29 96.4778 250.702 100.008C248.311 97.6628 245.857 95.3676 243.343 93.1223C203.464 57.0289 163.494 41.8263 139.502 55.9905C116.504 69.5652 109.669 109.878 119.356 160.332C120.325 165.322 121.413 170.289 122.622 175.235C116.964 176.872 111.5 178.622 106.275 180.474C59.5794 197.08 29.7188 223.117 29.7188 250.116C29.7188 278.014 61.7688 305.987 110.46 322.949C114.41 324.315 118.396 325.584 122.419 326.756C121.113 332.052 119.957 337.406 118.951 342.82C109.752 392.404 116.927 431.762 139.879 445.253C163.586 459.183 203.354 444.869 242.12 410.348C245.186 407.616 248.252 404.731 251.319 401.694C255.195 405.505 259.181 409.203 263.278 412.789C300.811 445.702 337.874 458.996 360.789 445.468C384.477 431.491 392.177 389.204 382.178 337.758C381.411 333.829 380.528 329.819 379.528 325.727C382.325 324.885 385.063 324.015 387.743 323.117C438.339 306.025 471.3 278.389 471.3 250.145C471.281 223.014 440.464 196.809 392.775 180.072ZM274.105 104.218C306.698 75.3001 337.166 63.8865 351.057 72.0444C365.84 80.7357 371.589 115.781 362.298 161.745C361.685 164.738 361.022 167.723 360.311 170.698C340.86 166.199 321.137 163.023 301.27 161.193C289.896 144.529 277.427 128.667 263.949 113.714C267.249 110.458 270.628 107.293 274.087 104.218H274.105ZM160.099 273.187C164.092 281.046 168.265 288.808 172.619 296.473C177.053 304.294 181.675 312 186.483 319.59C172.813 318.079 159.229 315.852 145.785 312.92C149.686 300.084 154.488 286.752 160.099 273.187ZM160.099 227.972C154.58 214.697 149.907 201.636 146.07 189.025C158.673 186.153 172.104 183.805 186.105 182.027C181.414 189.474 176.9 197.03 172.564 204.696C168.228 212.361 164.064 220.12 160.072 227.972H160.099ZM170.126 250.584C175.94 238.254 182.202 226.16 188.911 214.304C195.614 202.453 202.75 190.874 210.318 179.567C223.454 178.556 236.922 178.023 250.528 178.023C264.133 178.023 277.684 178.556 290.811 179.576C298.299 190.859 305.392 202.397 312.089 214.191C318.786 225.986 325.13 238.023 331.122 250.304C325.21 262.678 318.881 274.821 312.135 286.734C305.444 298.584 298.391 310.197 290.977 321.574C277.868 322.509 264.299 323.024 250.5 323.024C236.701 323.024 223.39 322.584 210.52 321.733C202.897 310.388 195.703 298.759 188.939 286.846C182.174 274.933 175.894 262.846 170.099 250.584H170.126ZM328.463 296.342C332.91 288.496 337.178 280.547 341.269 272.495C346.876 285.425 351.826 298.64 356.098 312.087C342.496 315.202 328.742 317.591 314.895 319.244C319.568 311.704 324.091 304.069 328.463 296.342ZM341.085 227.981C337.013 220.092 332.778 212.295 328.381 204.593C324.088 196.996 319.614 189.493 314.959 182.083C329.043 183.898 342.557 186.312 355.224 189.259C351.151 202.399 346.432 215.323 341.085 227.981ZM250.712 127.457C259.897 137.665 268.571 148.337 276.699 159.434C259.313 158.592 241.914 158.592 224.503 159.434C233.086 147.889 241.871 137.177 250.712 127.457ZM148.996 72.6151C163.77 63.8958 196.436 76.3573 230.869 107.483C233.067 109.476 235.284 111.562 237.492 113.723C223.945 128.674 211.388 144.523 199.904 161.165C180.082 162.981 160.397 166.106 140.974 170.52C139.852 165.93 138.84 161.308 137.938 156.655C129.613 113.405 135.123 80.8012 148.996 72.6151ZM127.46 308.233C123.781 307.166 120.147 306.009 116.559 304.762C95.0332 297.277 77.2511 287.51 65.0438 276.873C54.1151 267.34 48.5771 257.825 48.5771 250.116C48.5771 233.735 72.5503 212.835 112.53 198.661C117.553 196.884 122.619 195.259 127.727 193.787C133.665 213.193 140.856 232.179 149.253 250.622C140.756 269.319 133.476 288.564 127.46 308.233ZM229.691 395.865C212.553 411.133 195.387 421.958 180.255 427.412C166.658 432.305 155.831 432.445 149.29 428.6C135.363 420.414 129.567 388.802 137.469 346.403C138.408 341.413 139.481 336.424 140.689 331.434C160.307 335.732 180.189 338.667 200.199 340.219C211.795 356.947 224.455 372.886 238.099 387.932C235.358 390.673 232.552 393.311 229.691 395.865ZM251.236 374.142C242.294 364.309 233.371 353.429 224.669 341.735C233.126 342.071 241.736 342.24 250.5 342.24C259.497 342.24 268.402 342.043 277.178 341.641C269.079 352.916 260.42 363.763 251.236 374.142ZM365.785 400.889C363.154 415.334 357.864 424.97 351.323 428.825C337.405 437.039 307.646 426.364 275.559 398.214C271.879 394.995 268.199 391.543 264.455 387.923C277.834 372.818 290.198 356.815 301.464 340.023C321.584 338.289 341.563 335.147 361.259 330.62C362.16 334.325 362.957 337.955 363.65 341.51C368.075 364.244 368.71 384.807 365.785 400.889ZM381.791 304.865C379.381 305.679 376.897 306.464 374.377 307.232C368.201 287.734 360.729 268.686 352.013 250.219C360.402 231.999 367.581 213.227 373.503 194.03C378.02 195.368 382.408 196.772 386.63 198.259C427.493 212.592 452.423 233.81 452.423 250.116C452.423 267.518 425.497 290.102 381.791 304.865Z" fill="#2BFF00"/>
<path d="M250.5 290.308C258.329 290.333 265.989 287.996 272.511 283.592C279.033 279.187 284.124 272.913 287.137 265.565C290.151 258.216 290.953 250.124 289.441 242.311C287.929 234.499 284.172 227.319 278.645 221.68C273.118 216.041 266.07 212.196 258.393 210.633C250.717 209.07 242.757 209.859 235.521 212.9C228.285 215.941 222.1 221.097 217.748 227.716C213.395 234.334 211.072 242.117 211.072 250.079C211.061 255.354 212.073 260.579 214.049 265.457C216.025 270.334 218.926 274.767 222.588 278.503C226.25 282.239 230.6 285.205 235.389 287.23C240.178 289.256 245.313 290.301 250.5 290.308Z" fill="#2BFF00"/>
</svg>
