<svg width="200" height="216" viewBox="0 0 200 216" fill="none" xmlns="http://www.w3.org/2000/svg">
<rect width="200" height="216" fill="#1E1E1E"/>
<g id="Frame 1">
<rect y="16" width="200" height="200" rx="36" fill="#FF0000"/>
</g>
<g id="Vector">
<path d="M35 10C35 4.47715 39.4772 0 45 0H49C54.5228 0 59 4.47715 59 10V35C59 40.5228 54.5228 45 49 45H45C39.4772 45 35 40.5228 35 35V10Z" fill="#D9D9D9"/>
<path d="M88 10C88 4.47715 92.4772 0 98 0H102C107.523 0 112 4.47715 112 10V35C112 40.5228 107.523 45 102 45H98C92.4772 45 88 40.5228 88 35V10Z" fill="#D9D9D9"/>
<path d="M141 10C141 4.47715 145.477 0 151 0H155C160.523 0 165 4.47715 165 10V35C165 40.5228 160.523 45 155 45H151C145.477 45 141 40.5228 141 35V10Z" fill="#D9D9D9"/>
</g>
</svg>
